<?xml version="1.0" encoding="UTF-8"?>
<svg enable-background="new 0 0 315.509 233.333" viewBox="0 0 315.509 233.333" xmlns="http://www.w3.org/2000/svg">
 <path style="fill:#ffffff;" d="m308.608,14.224c.985.44 2.461-.617 4.313,0 1.352,2.802 1.38,4.663.432,7.764-.073.935 1.529.195 2.156.431-.841,1.459-2.675,1.926-3.882,3.019 .392.902 1.272,1.315 2.588,1.294-2.671,3.374-3.493,6.479-8.195,8.195-.46-1.266 3.396-1.539.862-2.157 .306-1.133 2.024-.851 2.588-1.725-.279-.439-.991-.446-.862-1.294 1.22.356 1.117-.608 2.157-.432-.104-.759-.742-.983-1.726-.862 .048-1.102 1.444-.856 2.588-.863 .321-1.328-1.185-.829-.862-2.157 2.146-2.004-.062-4.867 2.156-6.47-.347.229-.7.45-1.294.432-.048-1.937 1.18-3.185-.432-4.313-4.885,1.873-4.856,8.658-10.352,9.92-.001,1.439 1.403,1.472 1.294,3.019-2.14-.879-2.525-3.513-5.176-3.882-.585-.853.205-3.081-1.726-2.588 .318-1.663 1.137-4.743-1.725-4.313 1.079-6.553-6.749-8.871-10.352-5.607-.321,1.328 1.184.829.862,2.157-1.404-.464-2.241-1.497-3.882-1.725-.63.376-1.67.342-1.294,1.725-2.741-2.223-7.354-3.358-11.214-1.294-1.293-1.044 2.031-1.103 2.156-2.157 5.105-.648 6.972,1.942 12.077,1.294 2.047-4.137 9.833-2.482 12.508,0 1.177.314.868-.857 1.726-.862 4.026,2.027 9.467-.1 8.194-6.039-1.364-1.654-3.07-2.968-4.744-4.313 2.178-1.776 6.862,2.493 8.195,4.744 .89,1.503.327,3.494 1.725,4.313-.101,1.765.424,4.159-.859,4.746zm-9.489-1.295c-.848-.192-2.667-1.6-3.45-.431 .823,2.678 5.453,2.694 5.176,5.176 .598-.265.065-1.66.862-1.725 1.326-.827 2.984.423 1.295,1.294 3.296-.997 5.957-4.512 5.176-8.195-4.323-.059-5.736,4.283-9.059,3.881zm-1.294,8.196c-.176,1.039.788.938.432,2.157 4.691-.2 8.146-3.926 8.626-6.901-2.096,2.503-5.387,3.813-9.058,4.744z" fill-rule="evenodd"/>
 <path style="fill:#ffffff;" d="m284.885,24.144c1.641.634.085-1.928 1.726-1.294-.082,2.937-3.218,2.82-4.744,4.313 1.873,1.422 3.676-.911 4.744-1.726 .979,2.069-3.439,4.014-6.038,2.588-.528-2.54 2.606-1.418 2.156-3.882 .438.28.446.992 1.294.863 .353-2.55.71-4.978 0-7.764 2.829.744 2.333,5.154.862,6.902z" fill-rule="evenodd"/>
 <path style="fill:#ffffff;" d="m292.218,21.556c.773-.055.909.528 1.725.432-.725,2.15-1.948,3.802-4.744,3.882 .357-1.548-.973-2.087 0-3.02 .531.188.886.552.862,1.294 .261-2.286 2.147-.381 2.157-2.588z" fill-rule="evenodd"/>
 <path style="fill:#ffffff;" d="m273.24,21.987c1.178.851 1.84,3.978 1.726,4.744-1.751-.279-2.161-3.657-1.726-4.744z" fill-rule="evenodd"/>
 <path style="fill:#ffffff;" d="m277.553,26.731c-1.708-.161-2.38-1.358-2.588-3.019 1.919-.05 1.894,1.845 2.588,3.019z" fill-rule="evenodd"/>
 <path style="fill:#ffffff;" d="m277.553,24.575c1.356-.062 1.481,1.106 1.726,2.156-1.214-.08-1.838-.75-1.726-2.156z" fill-rule="evenodd"/>
 <path style="fill:#ffffff;" d="m247.792,26.3c.821.185 1.083.929 2.156.863-.32,1.6-2.327.519-2.156-.863z" fill-rule="evenodd"/>
 <path style="fill:#ffffff;" d="m262.457,27.594c1.487.064 2.596,1.934 1.726,3.019-1.033-.549-1.757-1.406-1.726-3.019z" fill-rule="evenodd"/>
 <path style="fill:#ffffff;" d="m220.188,28.025c-.327,2.271-3.32,3.161-2.588,5.176-2.517-.504-1.61,2.416-3.451,2.588 1.181-3.42 2.98-6.221 6.039-7.764z" fill-rule="evenodd"/>
 <path style="fill:#ffffff;" d="m213.718,31.476c-.781.657.082,2.958-1.726,2.588-.525-1.569 2.106-1.695-.432-1.725 .315-.877 1.299-1.761 2.158-.863z" fill-rule="evenodd"/>
 <path style="fill:#ffffff;" d="m210.267,31.476c-.531,1.337-1.31,2.429-3.019,2.588 .405-1.465 1.068-2.67 3.019-2.588z" fill-rule="evenodd"/>
 <path style="fill:#ffffff;" d="m260.3,32.77c1.119-.22 1.288-.503 2.588-1.294 .479.816.551,2.038.863,3.019-1.099-.625-1.937-1.514-3.451-1.725z" fill-rule="evenodd"/>
 <path style="fill:#ffffff;" d="m210.699,32.77c1.759-.157.282,2.495-.862,2.157-.322-1.328 1.183-.829.862-2.157z" fill-rule="evenodd"/>
 <path style="fill:#ffffff;" d="m275.397,33.201c1.304.277 2.489.674 2.588,2.157-.827-.755-2.656-.507-2.588-2.157z" fill-rule="evenodd"/>
 <path style="fill:#ffffff;" d="m198.191,35.358c.104,1.112.742-.592 1.725,0-1.99,3.39-6.705,1.798-9.92,3.451 1.847-1.892 4.518-2.958 7.332-3.882-.567.87-1.416,1.459-2.588,1.725 1.523,1.354 3.334-.673 3.451-2.157 .542.107.434.858 0,.863z" fill-rule="evenodd"/>
 <path style="fill:#ffffff;" d="m262.026,36.221c.718-.967 2.343.792 3.45.862-.785,2.002-2.369-.531-3.45-.862z" fill-rule="evenodd"/>
 <path style="fill:#ffffff;" d="m284.885,35.789c.759.104.983.742.863,1.726-1.343.201-1.541-1.085-.863-1.726z" fill-rule="evenodd"/>
 <path style="fill:#ffffff;" d="m105.457,36.221h.863v1.294h-1.294c-.122-.697.408-.743.431-1.294z" fill-rule="evenodd"/>
 <path style="fill:#ffffff;" d="m206.817,36.652c-.743.808-1.812,2.716-3.02,1.725 1.035-.547 1.273-1.891 3.02-1.725z" fill-rule="evenodd"/>
 <path style="fill:#ffffff;" d="m177.92 37.083c-1.739 1.227-4.839 2.597-7.332 1.726 2.087-0.933 4.806-1.233 7.332-1.726z" fill-rule="evenodd"/>
 <path style="fill:#ffffff;" d="m209.4 37.083c0.227 1.809-1.453 1.709-2.588 2.157-0.057-1.638 1.128-2.035 2.588-2.157z" fill-rule="evenodd"/>
 <path style="fill:#ffffff;" d="m105.889,37.946c.068,2.5-1.624,3.07-.863,5.176-.901.183-1.142-.295-1.725-.431 1.622-1.678.535-4.157 2.588-4.745z" fill-rule="evenodd"/>
 <path style="fill:#ffffff;" d="m135.65 38.377h1.294v1.294h-1.294v-1.294z" fill-rule="evenodd"/>
 <path style="fill:#ffffff;" d="m244.773,38.377c1.869.624-.454.964 0,2.588 1.859.278 1.354-1.809 3.02-1.725-.8,1.213-1.429,2.597-3.02,3.019-.795-.93-3.038-.412-3.02-2.156 2.037.454 2.423-.741 3.02-1.726z" fill-rule="evenodd"/>
 <path style="fill:#ffffff;" d="m284.455,38.809c.062-.167.912-.763 1.294-.432 .853.743-1.913,2.079-1.294.432z" fill-rule="evenodd"/>
 <path style="fill:#ffffff;" d="m167.567,39.24c-.029,1.162-.985,2.073-1.726,1.294-.13-1.137.598-1.416 1.726-1.294z" fill-rule="evenodd"/>
 <path style="fill:#ffffff;" d="m254.693,39.671c-.37,1.643-1.539,2.486-3.45,2.588 .04,5.028-1.126,8.759.432,13.371-4.208-2.694-.866-11.374-3.882-14.665 2.602-1.96 3.486-.332 6.9-1.294z" fill-rule="evenodd"/>
 <path style="fill:#ffffff;" d="m135.218,40.103c.901-.183 1.142.295 1.725.431-.361.933-1.117,1.471-.863,3.019-.901.183-1.142-.295-1.725-.431 .166-1.128 1.384-1.205.863-3.019z" fill-rule="evenodd"/>
 <path style="fill:#ffffff;" d="m194.309,40.103h2.156c.442,1.449-1.342.671-2.156.862v-.862z" fill-rule="evenodd"/>
 <path style="fill:#ffffff;" d="m189.996,40.534c1-.138 1.656.069 2.156.431 .075.703-2.821.871-2.156-.431z" fill-rule="evenodd"/>
 <path style="fill:#ffffff;" d="m284.885,40.534c1.051.244 2.219.37 2.157,1.725-2.099-.661-1.624,1.252-3.02,1.294 .351-1.741.811-1.732.863-3.019z" fill-rule="evenodd"/>
 <path style="fill:#ffffff;" d="m259.869,41.828c-.127,1.408-3.256,1.071-3.019-.431 .609-.617 2.095.093 3.019.431z" fill-rule="evenodd"/>
 <path style="fill:#ffffff;" d="m165.841,41.396c1.624-.045 1.262,4.464-.862,3.451-.151-2.301 1.863-1.15.862-3.451z" fill-rule="evenodd"/>
 <path style="fill:#ffffff;" d="m197.76 42.69h-1.726c-0.339-1.66 2.066-1.66 1.726 0z" fill-rule="evenodd"/>
 <path style="fill:#ffffff;" d="m39.897,41.828c.696-.122.742.408 1.294.431-.589,2.143.011,5.475-1.294,6.901-2.615-.61.224-5.014 0-7.332z" fill-rule="evenodd"/>
 <path style="fill:#ffffff;" d="m71.383,42.259c.477-.862 2.316.525 3.882,0 .281,1.719-1.64,1.236-3.02,1.294 .02-.738-.32-1.117-.862-1.294z" fill-rule="evenodd"/>
 <path style="fill:#ffffff;" d="m45.504,48.297c-.071,1.221 2.659-.358 2.588.863 .032,2.383-3.38.918-4.745.863-.447-3.754 3.996-2.618 4.313-5.607-.627-1.278-1.683.568-3.02,0 1.232-3.497 4.855-2.239 4.745.432-.103,2.515-2.579,1.482-3.881,3.449z" fill-rule="evenodd"/>
 <path style="fill:#ffffff;" d="m246.929,43.122h1.294c-.317,1.696-.899,3.126-1.294,4.745-.997-.887-.299-3.725 0-4.745z" fill-rule="evenodd"/>
 <path style="fill:#ffffff;" d="m103.732,43.553c1.352.299.562,1.151.431,2.157-1.928.072-1.113-1.518-.431-2.157z" fill-rule="evenodd"/>
 <path style="fill:#ffffff;" d="m195.6 43.553c1.258-0.634 1.258 1.928 0 1.294v-1.294z" fill-rule="evenodd"/>
 <path style="fill:#ffffff;" d="m243.911,43.553c.901-.183 1.142.296 1.725.432 .908,2.852-2.311,6.434-1.294,9.489-.901.183-1.142-.295-1.725-.431-.329,2.342.683,3.343.431,5.607-2.603-.319-1.775-3.635-1.725-5.176 .111-3.412 2.155-7.624 2.588-9.921zm-.432,3.019v.863c1.062.67 1.269-1.465.432-1.294-.025.263-.065.51-.432.431z" fill-rule="evenodd"/>
 <path style="fill:#ffffff;" d="m73.108,43.984c1.329-.323.526,1.487 2.157.863 .084,1.235.053,2.354-1.294,2.156 1.012-1.7-.812-1.318-.863-3.019z" fill-rule="evenodd"/>
 <path style="fill:#ffffff;" d="m134.355,43.984c1.136-.13 1.416.597 1.294,1.725h-1.294v-1.725z" fill-rule="evenodd"/>
 <path style="fill:#ffffff;" d="m240.029,43.984c.501-.07.768.095.862.431-1.281,3.084-2.646,7.113-3.45,10.783-.252,1.149.896,3.325-1.294,3.45 .642-5.54 1.379-10.984 3.882-14.664z" fill-rule="evenodd"/>
 <path style="fill:#ffffff;" d="m287.905,43.984c1.03.415 1.675,2.511.862,3.451-1.428-.784-.352-1.569-.862-3.451z" fill-rule="evenodd"/>
 <path style="fill:#ffffff;" d="m283.591,44.847c-2.35,1.152-.294,3.133-.431,4.744-2.171-.088-2.674-5.314.431-4.744z" fill-rule="evenodd"/>
 <path style="fill:#ffffff;" d="m277.553,45.709c.164-.821.549.275.432.863-.165.821-.549-.275-.432-.863z" fill-rule="evenodd"/>
 <path style="fill:#ffffff;" d="m166.273,45.709c.122,1.128-.157,1.855-1.294,1.726-.229-.347-.45-.7-.432-1.294 .384-.335.975-.464 1.726-.432z" fill-rule="evenodd"/>
 <path style="fill:#ffffff;" d="m195.171,45.709h1.294c.121.697-.407.743-.432,1.294h-.862v-1.294z" fill-rule="evenodd"/>
 <path style="fill:#ffffff;" d="m103.301,46.141c1.643-.322.932,2.793-.432,2.156-.137-1 .069-1.655.432-2.156z" fill-rule="evenodd"/>
 <path style="fill:#ffffff;" d="m135.218,46.572c.314,1.177-.857.868-.863,1.725-.468-.106-.292-.857-.863-.862 .105-.759.743-.983 1.726-.863z" fill-rule="evenodd"/>
 <path style="fill:#ffffff;" d="m74.833,47.435c-.491,1.979.406,2.68-.431,4.313-1.519-.534-1.269-3.679.431-4.313z" fill-rule="evenodd"/>
 <path style="fill:#ffffff;" d="m195.171,47.435c.762-.138.77,2.416-.432,1.725-.182-.901.297-1.142.432-1.725z" fill-rule="evenodd"/>
 <path style="fill:#ffffff;" d="m164.117,48.297h1.294c.183.902-.296,1.142-.432,1.726-.759-.104-.983-.742-.862-1.726z" fill-rule="evenodd"/>
 <path style="fill:#ffffff;" d="m89.93,50.023c-1.129,2.57-.915,2.341-.431,5.607-.894,1.395-3.424,1.718-4.745.431-.45-2.994 1.289-9.791 5.176-6.038zm-1.294.431c-.08-.639-1.042-.396-1.725-.431-.921,1.586 2.196,1.945 1.725.431zm-3.019,3.019c-.099,1.537.62,2.255 2.156,2.157-.097-.815.486-.952.432-1.725-1.122-.551-1.301-.947-2.588-.432z" fill-rule="evenodd"/>
 <path style="fill:#ffffff;" d="m102.438,48.729h.863v1.725h-.863v-1.725z" fill-rule="evenodd"/>
 <path style="fill:#ffffff;" d="m133.493,48.729c1.494-.303 1.547,1.512.863,2.156-.943-.063-.927-1.086-.863-2.156z" fill-rule="evenodd"/>
 <path style="fill:#ffffff;" d="m287.905,48.729c1.318-.312 1.572.441 2.588.431-.252,6.866 5.3,7.927 7.332,12.508 1.177.039.868-.719 1.726,0 .248.902 1.069,1.231.862,2.588-1.119.454-1.245-2.897-1.725-.431-1.776-1.427-1.798-3.142-3.451-4.745-1.078-1.046-3.539-1.836-4.744-3.02-1.214-1.19-1.218-5.404-2.588-7.331z" fill-rule="evenodd"/>
 <path style="fill:#ffffff;" d="m194.74,49.591c1.333.052.792,2.978-.431,3.02 .004-1.146-.163-2.464.431-3.02z" fill-rule="evenodd"/>
 <path style="fill:#ffffff;" d="m163.685,50.885h1.294c.183.902-.296,1.142-.432,1.726-.758-.104-.982-.742-.862-1.726z" fill-rule="evenodd"/>
 <path style="fill:#ffffff;" d="m101.575,51.317h1.294v1.725c-1.136.13-1.415-.597-1.294-1.725z" fill-rule="evenodd"/>
 <path style="fill:#ffffff;" d="m133.062,51.317c1.136-.13 1.416.597 1.294,1.725h-1.294v-1.725z" fill-rule="evenodd"/>
 <path style="fill:#ffffff;" d="m73.54,52.179h1.294c-1.004,3.228.062,6.258-2.157,7.764-.245-2.717.69-5.077.863-7.764z" fill-rule="evenodd"/>
 <path style="fill:#ffffff;" d="m101.575,53.473h1.294c.122,1.128-.157,1.855-1.294,1.726v-1.726z" fill-rule="evenodd"/>
 <path style="fill:#ffffff;" d="m163.253,53.473h1.294c.122,1.128-.157,1.855-1.294,1.726v-1.726z" fill-rule="evenodd"/>
 <path style="fill:#ffffff;" d="m194.309,53.473c.585.134.357,1.08.431,1.726h-1.294c-.494-1.357.678-1.049.863-1.726z" fill-rule="evenodd"/>
 <path style="fill:#ffffff;" d="m132.63,53.905h1.294c.183.901-.296,1.142-.432,1.725-.758-.104-.982-.742-.862-1.725z" fill-rule="evenodd"/>
 <path style="fill:#ffffff;" d="m248.22 53.905c1.87 1.725 3.159 4.029 4.313 6.47-2.405-1.189-3.642-3.546-4.313-6.47z" fill-rule="evenodd"/>
 <path style="fill:#ffffff;" d="m220.188,55.199c.121,1.128-.157,1.855-1.294,1.725 .363,1.218 1.975,1.188 2.156,2.588 .422,3.844-6.386,4.852-6.038.432 1.127-.121 2.158-.146 1.726,1.294 1.144-.007 2.539.239 2.588-.863-.196-2.536-2.739-2.725-3.451-4.745 .816-.765 2.848-.315 4.313-.431z" fill-rule="evenodd"/>
 <path style="fill:#ffffff;" d="m267.633,55.63c1.622,1.109 1.416,4.047 3.019,5.176-1.756-.318-1.458,1.417-2.156,2.157-1.733.062-1.141-1.106-.862-2.157-1.361-.211-1.523.777-3.02.432-.236-3.112 2.072-3.679 3.019-5.608zm-.863,3.882c1.201.691 1.192-1.863.432-1.725-.136.583-.615.823-.432,1.725z" fill-rule="evenodd"/>
 <path style="fill:#ffffff;" d="m101.144,56.061h.863v.863h-.863v-.863z" fill-rule="evenodd"/>
 <path style="fill:#ffffff;" d="m193.45 56.061c1.259-0.634 1.259 1.928 0 1.294v-1.294z" fill-rule="evenodd"/>
 <path style="fill:#ffffff;" d="m132.63,56.493h.862v.862h-.862v-.862z" fill-rule="evenodd"/>
 <path style="fill:#ffffff;" d="m162.823,56.493h.862v1.725h-.862v-1.725z" fill-rule="evenodd"/>
 <path style="fill:#ffffff;" d="m101.144,57.787c1.297-.435.764.961.863,1.725h-1.294c-.183-.902.295-1.142.431-1.725z" fill-rule="evenodd"/>
 <path style="fill:#ffffff;" d="m248.223,57.787c1.423.015 1.649,1.227 1.726,2.588-1.726.287-1.735-1.142-1.726-2.588z" fill-rule="evenodd"/>
 <path style="fill:#ffffff;" d="m16.605,58.649c1.514-.779 4.858.307 6.47.863-.128,1.797-3.347.144-3.882-.431-.764.804-2.273.444-2.588-.432z" fill-rule="evenodd"/>
 <path style="fill:#ffffff;" d="m193.015,58.218c.733-.159.813.336.862.863-.367-.08-.407.168-.432.431-.504-.07-.362-.786-.43-1.294z" fill-rule="evenodd"/>
 <path style="fill:#ffffff;" d="m133.062,58.649c.078.941-.353,1.373-1.294,1.294 .46-.402.134-1.591 1.294-1.294z" fill-rule="evenodd"/>
 <path style="fill:#ffffff;" d="m162.823,59.081h.862c.122.697-.407.743-.432,1.294h-.862c-.121-.697.407-.743.432-1.294z" fill-rule="evenodd"/>
 <path style="fill:#ffffff;" d="m241.753,59.081c1.625,1.083 1.457,4.151.432,5.607-.137-1.69-1.423-3.376-.432-5.607z" fill-rule="evenodd"/>
 <path style="fill:#ffffff;" d="m23.507,59.512h1.725c.435,1.297-.961.765-1.725.863v-.863z" fill-rule="evenodd"/>
 <path style="fill:#ffffff;" d="m26.095,59.943c2.188.482 3.153-.192 4.313.862 .254.919-2.576,1.566-2.157,0-1.05.279-2.218.872-2.156-.862z" fill-rule="evenodd"/>
 <path style="fill:#ffffff;" d="m72.677,60.375c.697-.122.743.408 1.294.431-.031,1.264-.156,2.432-1.726,2.157-.312-1.32.745-1.269.432-2.588z" fill-rule="evenodd"/>
 <path style="fill:#ffffff;" d="m100.281,60.375c1.137-.13 1.416.597 1.294,1.725h-1.294v-1.725z" fill-rule="evenodd"/>
 <path style="fill:#ffffff;" d="m192.583,60.375c1.343-.202 1.542,1.084.862,1.725-.758-.104-.982-.743-.862-1.725z" fill-rule="evenodd"/>
 <path style="fill:#ffffff;" d="m30.839,60.806c1.099.626 3.731-.281 3.882,1.294-1.834-.683-3.486.981-3.882-1.294z" fill-rule="evenodd"/>
 <path style="fill:#ffffff;" d="m131.336,61.237c.865-.147 1.35.088 1.294.862h-1.294v-.862z" fill-rule="evenodd"/>
 <path style="fill:#ffffff;" d="m35.583,61.668h1.294v1.294c-.94.079-1.372-.353-1.294-1.294z" fill-rule="evenodd"/>
 <path style="fill:#ffffff;" d="m38.603,62.1c1.235-.085 2.354-.054 2.156,1.294-1.235.085-2.354.053-2.156-1.294z" fill-rule="evenodd"/>
 <path style="fill:#ffffff;" d="m162.391,62.1h.862v1.294h-1.293c-.122-.697.408-.743.431-1.294z" fill-rule="evenodd"/>
 <path style="fill:#ffffff;" d="m101.144,62.531v1.725c-1.661.34-1.661-2.065 0-1.725z" fill-rule="evenodd"/>
 <path style="fill:#ffffff;" d="m192.15 62.531h1.294v1.294h-1.294v-1.294z" fill-rule="evenodd"/>
 <path style="fill:#ffffff;" d="m246.93 62.531h1.294v1.294h-1.294v-1.294z" fill-rule="evenodd"/>
 <path style="fill:#ffffff;" d="m41.622,62.962c.987.451 2.602.273 3.451.863-.377,1.592-3.15.248-3.451-.863z" fill-rule="evenodd"/>
 <path style="fill:#ffffff;" d="m131.336,62.962h.862v1.725h-.862v-1.725z" fill-rule="evenodd"/>
 <path style="fill:#ffffff;" d="m73.54,63.394c-.372,2.568-.313,3.631-.431,6.901-.995.132-.479-1.246-1.294-1.294 1.688-1.626-.974-4.809 1.725-5.607z" fill-rule="evenodd"/>
 <path style="fill:#ffffff;" d="m45.935,63.825c1.311.414 3.513-.062 3.451,1.725-1.911-.759-3.08.119-3.451-1.725z" fill-rule="evenodd"/>
 <path style="fill:#ffffff;" d="m161.96,64.256c1.66-.34 1.66,2.065 0,1.725v-1.725z" fill-rule="evenodd"/>
 <path style="fill:#ffffff;" d="m52.405,65.981c-1,.138-1.656-.069-2.156-.431 .037-1.283 2.571-1.154 2.156.431z" fill-rule="evenodd"/>
 <path style="fill:#ffffff;" d="m99.85,65.119c1.258-.634 1.258,1.928 0,1.294v-1.294z" fill-rule="evenodd"/>
 <path style="fill:#ffffff;" d="m192.15 65.119c1.258-0.634 1.258 1.928 0 1.294v-1.294z" fill-rule="evenodd"/>
 <path style="fill:#ffffff;" d="m52.836,65.981c-.075-.703 2.822-.871 2.156.432-.999.137-1.655-.069-2.156-.432z" fill-rule="evenodd"/>
 <path style="fill:#ffffff;" d="m56.287,65.55h.862c.202.92-.616.821-1.294.863 .083-.35.433-.43.432-.863z" fill-rule="evenodd"/>
 <path style="fill:#ffffff;" d="m131.336,65.55c1,.12.991,1.152.431,1.725-.999-.12-.991-1.151-.431-1.725z" fill-rule="evenodd"/>
 <path style="fill:#ffffff;" d="m241.753,65.55c2.393.057.488,2.451 1.294,3.451-1.446-.135-1.208-1.955-1.294-3.451z" fill-rule="evenodd"/>
 <path style="fill:#ffffff;" d="m247.792,65.55h.862c-.079.367.168.407.432.431v.863c-.367-.08-.407.168-.432.431h-.862c.079-.367-.169-.407-.432-.431v-.863c.368.08.408-.168.432-.431z" fill-rule="evenodd"/>
 <path style="fill:#ffffff;" d="m63.188,66.844h1.725c.435,1.297-.961.764-1.725.863v-.863z" fill-rule="evenodd"/>
 <path style="fill:#ffffff;" d="m99.418,66.844c1.138-.131 1.113.9 1.294,1.725-1.439.433-1.414-.598-1.294-1.725z" fill-rule="evenodd"/>
 <path style="fill:#ffffff;" d="m161.53 66.844h1.294v1.294h-1.294v-1.294z" fill-rule="evenodd"/>
 <path style="fill:#ffffff;" d="m191.72 66.844c1.258-0.634 1.258 1.928 0 1.294v-1.294z" fill-rule="evenodd"/>
 <path style="fill:#ffffff;" d="m65.776 68.138c1.605-1.506 2.188 1.176 0 0z" fill-rule="evenodd"/>
 <path style="fill:#ffffff;" d="m117.103,68.138c-.083,1.787-1.288,2.45-2.588,3.019-.583,2.293-.484,5.267-3.45,5.176 .429-3.021 2.417-4.483 3.45-6.901-.436-1.214-1.832.119-2.588,0v-1.294c.989-.674 4.187-.674 5.176,0z" fill-rule="evenodd"/>
 <path style="fill:#ffffff;" d="m130.9 67.707c1.258-0.634 1.258 1.928 0 1.294v-1.294z" fill-rule="evenodd"/>
 <path style="fill:#ffffff;" d="m148.158,68.569c-.381,2.135-3.204-.698-3.882,1.294 1.612.688 3.769.832 4.313,2.588 .093,2.34-1.005,3.198-2.156,3.451-5.947,1.305-4.452-11.585 1.725-7.333zm-3.882,3.02c-.093,1.674.457,2.706 1.725,3.019 1.313-.034 1.011-2.82.432-3.451-1.001-.137-1.657.07-2.157.432z" fill-rule="evenodd"/>
 <path style="fill:#ffffff;" d="m180.076,68.569c.281,1.719-1.641,1.236-3.02,1.294 .009,1.86 1.896,1.842 2.156,3.451-.201,1.524-1.089,2.361-1.725,3.451-2.02-.138-4.016-.298-3.883-2.588 1.721-.427 1.299,1.289 3.02.862 .64-.366.928-1.085.863-2.156-.009-1.285-2.035-.553-2.588-1.294 1.207-2.286 2.401-4.367 5.177-3.02z" fill-rule="evenodd"/>
 <path style="fill:#ffffff;" d="m58.875,68.569c1.258-.634 1.258,1.928 0,1.294v-1.294z" fill-rule="evenodd"/>
 <path style="fill:#ffffff;" d="m161.529,69.001h.862v1.725h-.862v-1.725z" fill-rule="evenodd"/>
 <path style="fill:#ffffff;" d="m191.721,69.001c1.509.356.389,2.952.431,3.882-1.362-.805-.676-2.212-.431-3.882z" fill-rule="evenodd"/>
 <path style="fill:#ffffff;" d="m99.418,69.432c.896.242.914.673.432,1.294h-.863c-.121-.697.408-.743.431-1.294z" fill-rule="evenodd"/>
 <path style="fill:#ffffff;" d="m247.79 69.432c1.418-0.103 1.938 2.376 0 2.157v-2.157z" fill-rule="evenodd"/>
 <path style="fill:#ffffff;" d="m131.768,70.295c.34,1.661-2.065,1.661-1.725,0 .856-.719.548.039 1.725,0z" fill-rule="evenodd"/>
 <path style="fill:#ffffff;" d="m296.962,70.295c.953.054.184,1.83.432,2.588 3.238-.22 5.938.101 6.47,2.588-.832,1.756-3.101,2.075-4.745,3.019-2.646-.948-3.495-3.693-3.45-7.333 .347-.37 1.181-.256 1.293-.862zm3.02,6.038c-1.609.458-.683-1.617-2.157-1.294-.662,1.566 1.581,2.39 2.157,1.294z" fill-rule="evenodd"/>
 <path style="fill:#ffffff;" d="m34.29,71.157c.697-.122.743.408 1.294.432-.588,2.143.012,5.475-1.294,6.901-2.479-.475-.107-5.346 0-7.333z" fill-rule="evenodd"/>
 <path style="fill:#ffffff;" d="m72.677,71.157h1.294c.137,1-.069,1.656-.432,2.157-.942-.064-.925-1.087-.862-2.157z" fill-rule="evenodd"/>
 <path style="fill:#ffffff;" d="m98.987,71.157c1.098.044 1.019,1.607.431,2.157-1.097-.044-1.018-1.607-.431-2.157z" fill-rule="evenodd"/>
 <path style="fill:#ffffff;" d="m161.529,71.157c1.182.009 1.024,2.035.432,2.588-1.183-.009-1.026-2.035-.432-2.588z" fill-rule="evenodd"/>
 <path style="fill:#ffffff;" d="m233.99,71.589c1.412.238 1.717,2.402-.431,2.156-.356-1.219.608-1.117.431-2.156z" fill-rule="evenodd"/>
 <path style="fill:#ffffff;" d="m38.603,72.02c1.356-.207 1.686.614 2.588.863-1.223,1.684-.601,2.839.431,4.313 .287,2.421-5.39,4.152-5.607.863 1.376-.37 1.334.679 2.156.862 1.08.073 1.351-.663 1.726-1.294 .122-1.128-.158-1.855-1.294-1.725 .82-2.306 1.378-1.985 0-3.882z" fill-rule="evenodd"/>
 <path style="fill:#ffffff;" d="m130.042,72.451c1.737-.421 1.737,2.578 0,2.157-.809-.823.256-.78 0-2.157z" fill-rule="evenodd"/>
 <path style="fill:#ffffff;" d="m58.443,73.314c.936-.073.196,1.53.432,2.157-1.928.072-1.113-1.518-.432-2.157z" fill-rule="evenodd"/>
 <path style="fill:#ffffff;" d="m190.858,73.314h1.294c.183.901-.295,1.142-.431,1.725-.759-.103-.983-.742-.863-1.725z" fill-rule="evenodd"/>
 <path style="fill:#ffffff;" d="m73.971,73.745c.845-.208 1.389,1.978.431,2.157-1.554.413-.764-1.862-.431-2.157z" fill-rule="evenodd"/>
 <path style="fill:#ffffff;" d="m283.16 73.745c1.411-0.091 1.702 2.023 0 1.726v-1.726z" fill-rule="evenodd"/>
 <path style="fill:#ffffff;" d="m286.611,74.177v.862c-.92.202-.821-.616-.862-1.294 .348.082.429.433.862.432z" fill-rule="evenodd"/>
 <path style="fill:#ffffff;" d="m98.556,74.177c1.426-.03.729,4.56-.863,4.313 .087-1.639.382-3.069.863-4.313z" fill-rule="evenodd"/>
 <path style="fill:#ffffff;" d="m160.666,74.608h1.295v1.725c-1.137.13-1.417-.597-1.295-1.725z" fill-rule="evenodd"/>
 <path style="fill:#ffffff;" d="m292.649,74.608c1.138-.131 1.112.9 1.294,1.725-1.44.434-1.414-.598-1.294-1.725z" fill-rule="evenodd"/>
 <path style="fill:#ffffff;" d="m190.858,75.471c1.765,1.495 1.41,6.985-.431,7.332 .222-2.529.746-3.621.431-7.332z" fill-rule="evenodd"/>
 <path style="fill:#ffffff;" d="m130.042,75.902h.862v1.725h-.862v-1.725z" fill-rule="evenodd"/>
 <path style="fill:#ffffff;" d="m57.149,76.333c.566.152.679.76 1.294.863-.104.759-.742.983-1.725.863 .335-.384.464-.975.431-1.726z" fill-rule="evenodd"/>
 <path style="fill:#ffffff;" d="m76.559,77.627c-1.219.356-1.118-.607-2.157-.431 .079-1.325 2.323-.905 2.157.431z" fill-rule="evenodd"/>
 <path style="fill:#ffffff;" d="m232.696,76.333c3.427,2.988.953,7.489 3.02,10.783-.696.122-.742-.408-1.294-.431 .267,2.321 1.438,3.738 2.588,5.176-2.048.743-2.356-3.961-3.882-5.176 .316-.403.784-.654 1.294-.863-1.532-3.544-.752-4.816-1.726-9.489z" fill-rule="evenodd"/>
 <path style="fill:#ffffff;" d="m253.399,76.765c2.179-.567 4.281,4.398 7.333,3.019-.314,1.177.857.868.862,1.725-1.312,1.923-.071,5.362-2.156,5.607 .307-1.033.202-1.588.431-3.451-2.776-1.681-4.823-4.09-6.47-6.9z" fill-rule="evenodd"/>
 <path style="fill:#ffffff;" d="m276.691,76.765c.054-.953 1.829-.183 2.588-.432-.055.953-1.83.184-2.588.432z" fill-rule="evenodd"/>
 <path style="fill:#ffffff;" d="m160.666,77.196h1.295v1.725c-1.137.13-1.417-.597-1.295-1.725z" fill-rule="evenodd"/>
 <path style="fill:#ffffff;" d="m80.872,80.215c-1.494.959-2.788-1.347-4.313-1.725 .078-1.251 2.05-1.04 1.725.431 1.312-.017 2.839-.251 2.588,1.294z" fill-rule="evenodd"/>
 <path style="fill:#ffffff;" d="m129.611,78.49h1.294c.018,1.312.251,2.839-1.294,2.588v-2.588z" fill-rule="evenodd"/>
 <path style="fill:#ffffff;" d="m56.718,78.921h1.294c-.182.825-.156,1.857-1.294,1.726v-1.726z" fill-rule="evenodd"/>
 <path style="fill:#ffffff;" d="m97.693,78.921c1.283.038 1.154,2.572-.431,2.157-.137-1 .07-1.656.431-2.157z" fill-rule="evenodd"/>
 <path style="fill:#ffffff;" d="m160.666,79.784h1.295c.121,1.128-.158,1.855-1.295,1.725v-1.725z" fill-rule="evenodd"/>
 <path style="fill:#ffffff;" d="m81.303,80.646c.339-.99 2.67-.419 2.157.862-1.375.369-1.637-.375-2.157-.862z" fill-rule="evenodd"/>
 <path style="fill:#ffffff;" d="m194.74,80.215c.759.104.983.742.863,1.726-1.344.201-1.542-1.085-.863-1.726z" fill-rule="evenodd"/>
 <path style="fill:#ffffff;" d="m251.24 80.646c2.451-0.151 1.5 3.101 3.45 3.45-1.776 1.184-2.943-1.93-3.45-3.45z" fill-rule="evenodd"/>
 <path style="fill:#ffffff;" d="m84.754,81.078c.751.398 2.315-.015 2.157,1.294-1.236.085-2.354.053-2.157-1.294z" fill-rule="evenodd"/>
 <path style="fill:#ffffff;" d="m274.103,81.078c1.26.482-.549,1.402-1.294,1.294-.671-1.534 1.465-.261 1.294-1.294z" fill-rule="evenodd"/>
 <path style="fill:#ffffff;" d="m56.718,81.509c1.539.366.052,1.062.431,2.588-1.182-.009-1.024-2.035-.431-2.588z" fill-rule="evenodd"/>
 <path style="fill:#ffffff;" d="m97.262,81.509c1.616-.3 1.051,3.264-.432,2.588-.056-1.063-.064-2.078.432-2.588z" fill-rule="evenodd"/>
 <path style="fill:#ffffff;" d="m129.18,81.509h1.725c.503,1.497-2.41,2.006-1.725,0z" fill-rule="evenodd"/>
 <path style="fill:#ffffff;" d="m90.361,82.803c-.372,1.651-2.245.437-3.019,0 .371-1.651 2.245-.436 3.019,0z" fill-rule="evenodd"/>
 <path style="fill:#ffffff;" d="m17.468,82.372h.863v.863h-.863v-.863z" fill-rule="evenodd"/>
 <path style="fill:#ffffff;" d="m160.67 82.372h1.295v1.294h-1.295v-1.294z" fill-rule="evenodd"/>
 <path style="fill:#ffffff;" d="m198.191,83.234c-.341,1.514-1.509.498-2.157,0 .341-1.513 1.508-.498 2.157,0z" fill-rule="evenodd"/>
 <path style="fill:#ffffff;" d="m19.193,82.803h.863v.863h-.863v-.863z" fill-rule="evenodd"/>
 <path style="fill:#ffffff;" d="m92.518,83.234c.435,1.297-.961.764-1.725.862 .103-.758.742-.982 1.725-.862z" fill-rule="evenodd"/>
 <path style="fill:#ffffff;" d="m95.105,84.097c.073.936-1.53.196-2.157.432 .045-1.098 1.608-1.02 2.157-.432z" fill-rule="evenodd"/>
 <path style="fill:#ffffff;" d="m129.18,83.666h1.294v1.725c-1.44.433-1.415-.599-1.294-1.725z" fill-rule="evenodd"/>
 <path style="fill:#ffffff;" d="m190.427,83.666c.696-.122.742.408 1.294.431-.082.35-.433.43-.432.863h-.862v-1.294z" fill-rule="evenodd"/>
 <path style="fill:#ffffff;" d="m250.811,83.666c1.643.371 2.336,1.69 2.588,3.451-1.642-.371-2.335-1.691-2.588-3.451z" fill-rule="evenodd"/>
 <path style="fill:#ffffff;" d="m198.622,84.097c1.351-.2 1.926.375 1.726,1.726-1.351.199-1.927-.376-1.726-1.726z" fill-rule="evenodd"/>
 <path style="fill:#ffffff;" d="m95.537,84.528c1.264.03 2.432.156 2.157,1.725-.865.814-2.006-.529-2.157-1.725z" fill-rule="evenodd"/>
 <path style="fill:#ffffff;" d="m160.234,84.528h1.295v1.725c-1.44.434-1.414-.598-1.295-1.725z" fill-rule="evenodd"/>
 <path style="fill:#ffffff;" d="m56.287,84.959c.704-.194.704,2.351 0,2.157-1.777.209-.614-2.104 0-2.157z" fill-rule="evenodd"/>
 <path style="fill:#ffffff;" d="m29.977,85.822c1.506.219 3.256.194 4.313.863-.23,1.686-3.825-.007-4.313-.863z" fill-rule="evenodd"/>
 <path style="fill:#ffffff;" d="m191.29,85.822c-1.112,1.76 1.639,3.08-.862,3.451 .354-1.083-.84-3.714.862-3.451z" fill-rule="evenodd"/>
 <path style="fill:#ffffff;" d="m200.779,85.822c1.606-.457 1.392.908 2.156,1.294-.575,1.095-2.819.272-2.156-1.294z" fill-rule="evenodd"/>
 <path style="fill:#ffffff;" d="m242.185,85.822c.696-.122.742.408 1.294.431-.41,2.991 1.321,4.063.432,8.195 .315.402.784.653 1.294.862-.497,1.085-.205,2.958-1.726,3.02-.391-5.664-1.263-6.932-1.294-12.508z" fill-rule="evenodd"/>
 <path style="fill:#ffffff;" d="m129.18,86.253c.697-.122.743.408 1.294.432-.766,1.905-.223,2.437-.863,4.313-1.944-.727.121-2.78-.431-4.745z" fill-rule="evenodd"/>
 <path style="fill:#ffffff;" d="m35.152,86.685c1.235-.085 2.354-.054 2.157,1.294-1.14-.011-2.703.402-2.157-1.294z" fill-rule="evenodd"/>
 <path style="fill:#ffffff;" d="m39.465,87.547v1.294c-.773.055-.91-.528-1.725-.431 .104-.759.742-.983 1.725-.863z" fill-rule="evenodd"/>
 <path style="fill:#ffffff;" d="m95.968,87.547c.696-.122.743.408 1.294.432-.229.347-.45.7-.432,1.294-.758-.104-.982-.742-.862-1.726z" fill-rule="evenodd"/>
 <path style="fill:#ffffff;" d="m160.234,87.547c1.507-.386.737,1.407.432,1.726-.585-.134-.358-1.08-.432-1.726z" fill-rule="evenodd"/>
 <path style="fill:#ffffff;" d="m249.949,87.547h1.294c.284.907 1.142,1.917.432,2.588-1.424-.015-1.65-1.226-1.726-2.588z" fill-rule="evenodd"/>
 <path style="fill:#ffffff;" d="m40.328,87.979c1.235-.085 2.354-.054 2.157,1.294-.476.482-2.574.385-2.157-1.294z" fill-rule="evenodd"/>
 <path style="fill:#ffffff;" d="m55.855,87.979c1.352.298.562,1.15.432,2.156-1.928.073-1.113-1.517-.432-2.156z" fill-rule="evenodd"/>
 <path style="fill:#ffffff;" d="m203.797,87.979c1.377-.37 1.334.679 2.157.862-.338.991-2.669.42-2.157-.862z" fill-rule="evenodd"/>
 <path style="fill:#ffffff;" d="m43.347,88.841c1-.137 1.656.069 2.157.432-.038,1.283-2.572,1.154-2.157-.432z" fill-rule="evenodd"/>
 <path style="fill:#ffffff;" d="m47.661,90.567h-1.726c-.34-1.661 2.065-1.661 1.726,0z" fill-rule="evenodd"/>
 <path style="fill:#ffffff;" d="m209.405,90.567c-.421,1.7-2.102.292-2.588-.432 .433-1.711 1.741.069 2.588.432z" fill-rule="evenodd"/>
 <path style="fill:#ffffff;" d="m233.127,89.273c1.843,1.608 2.48,4.421 4.313,6.038-.07.506-.787.364-1.294.432 .651,2.082 1.813,3.183 2.156,4.744-.279-1.272-1.435,2.248.432,2.157-.07.505-.787.364-1.294.431 .39.761.965,1.336 1.725,1.726-3.927.664-2.703-5.007-4.744-7.333 1.718-.136 1.168,1.995 2.588,2.157-1.02-3.479-3.561-7.597-3.882-10.352z" fill-rule="evenodd"/>
 <path style="fill:#ffffff;" d="m160.666,89.704c.838-.171.631,1.964-.432,1.294v-.863c.367.08.408-.168.432-.431z" fill-rule="evenodd"/>
 <path style="fill:#ffffff;" d="m50.68,90.135c.443,1.449-1.341.671-2.157.863 .063-.943 1.087-.926 2.157-.863z" fill-rule="evenodd"/>
 <path style="fill:#ffffff;" d="m95.537,90.135h1.294c.183.902-.295,1.142-.431,1.726-.759-.104-.983-.742-.863-1.726z" fill-rule="evenodd"/>
 <path style="fill:#ffffff;" d="m190.427,90.135c.92-.202.821.616.862,1.294-.35-.082-.43-.433-.862-.431v-.863z" fill-rule="evenodd"/>
 <path style="fill:#ffffff;" d="m51.974,90.567c.384.335.974.463 1.725.431-.104.759-.742.983-1.725.863v-1.294z" fill-rule="evenodd"/>
 <path style="fill:#ffffff;" d="m248.223,90.567c1.798-.216 2.07,1.092 2.157,2.588-1.638.056-2.035-1.129-2.157-2.588z" fill-rule="evenodd"/>
 <path style="fill:#ffffff;" d="m54.562,91.429h1.294c-.182.825-.156,1.856-1.294,1.726v-1.726z" fill-rule="evenodd"/>
 <path style="fill:#ffffff;" d="m129.18,91.429c.761-.137.77,2.417-.431,1.726-.183-.902.295-1.142.431-1.726z" fill-rule="evenodd"/>
 <path style="fill:#ffffff;" d="m209.405,91.861c.633-1.019 3.329-.488 2.588,1.294-1.669.374-1.535-1.054-2.588-1.294z" fill-rule="evenodd"/>
 <path style="fill:#ffffff;" d="m190.427,92.292c1.869.18-.455,2.503 0,0z" fill-rule="evenodd"/>
 <path style="fill:#ffffff;" d="m95.537,92.723h.863v1.726h-.863v-1.726z" fill-rule="evenodd"/>
 <path style="fill:#ffffff;" d="m213.287,93.155c1.128-.122 1.855.157 1.726,1.294-1.128.12-2.159.145-1.726-1.294z" fill-rule="evenodd"/>
 <path style="fill:#ffffff;" d="m54.13,94.017h.862v1.726h-.862v-1.726z" fill-rule="evenodd"/>
 <path style="fill:#ffffff;" d="m128.749,94.017h.862v1.726h-.862v-1.726z" fill-rule="evenodd"/>
 <path style="fill:#ffffff;" d="m215.875,94.449h1.726c-.055.773.527.91.431,1.725-1.051-.244-2.219-.369-2.157-1.725z" fill-rule="evenodd"/>
 <path style="fill:#ffffff;" d="m71.814,94.88h1.294c-.054,1.5 1.401,7.93-2.157,7.333 .495-3.004.537-4.944.863-7.333z" fill-rule="evenodd"/>
 <path style="fill:#ffffff;" d="m76.99,94.88c1.228.967.614,6.715-.431,8.195-3.296-1.153.994-4.924-.863-7.332 .348-.371 1.181-.257 1.294-.863z" fill-rule="evenodd"/>
 <path style="fill:#ffffff;" d="m160.234,95.311h.863v1.726h-.863v-1.726z" fill-rule="evenodd"/>
 <path style="fill:#ffffff;" d="m247.79 95.311c1.258-0.634 1.258 1.928 0 1.294v-1.294z" fill-rule="evenodd"/>
 <path style="fill:#ffffff;" d="m95.537,95.743c.531.188.886.552.863,1.294-1.497.376-1.48-.664-.863-1.294z" fill-rule="evenodd"/>
 <path style="fill:#ffffff;" d="m30.408,96.174h1.294c-.231,2.788.194,6.232-1.725,7.333-1.923-1.209 1.404-4.238.431-7.333z" fill-rule="evenodd"/>
 <path style="fill:#ffffff;" d="m54.13,96.174c.896.242.914.673.431,1.294h-.863c.229-.347.451-.7.432-1.294z" fill-rule="evenodd"/>
 <path style="fill:#ffffff;" d="m128.749,96.605c1.12-.125 1.499,2.917-.432,2.157-.357-1.22.608-1.117.432-2.157z" fill-rule="evenodd"/>
 <path style="fill:#ffffff;" d="m219.326,97.037c.607-.994 2.809.032 2.588,1.294-1.527.231-1.891-.698-2.588-1.294z" fill-rule="evenodd"/>
 <path style="fill:#ffffff;" d="m190 97.037h1.294c0.121 1.128-0.157 1.855-1.294 1.725v-1.725z" fill-rule="evenodd"/>
 <path style="fill:#ffffff;" d="m37.74,97.899c.115,1.553-.797,2.079-.863,3.451 .39,1.452.965.051 1.726.863-1.369.644-1.632,2.394-3.451,2.588-.332-.951.421-2.957-2.157-2.588 .638-2.187 2.669-4.97 4.745-4.314zm-3.45,3.451c.616.104.728.71 1.294.863 .719-.576.145-2.444.863-3.02-1.356.083-2.075.802-2.157,2.157z" fill-rule="evenodd"/>
 <path style="fill:#ffffff;" d="m245.635,97.468c.995-.132.479,1.246 1.294,1.294-2.095.737.853,3.914-1.294,4.313 .624.67.575,2.013 1.294,2.588-2.666-.236-2.608-5.586-1.294-8.195z" fill-rule="evenodd"/>
 <path style="fill:#ffffff;" d="m95.105,98.331c.734-.159.814.336.863.862-.367-.079-.407.168-.432.432-.505-.07-.363-.787-.431-1.294z" fill-rule="evenodd"/>
 <path style="fill:#ffffff;" d="m160.234,98.331h.863v1.725h-.863v-1.725z" fill-rule="evenodd"/>
 <path style="fill:#ffffff;" d="m222.776,98.331c1.406-.112 2.075.512 2.156,1.725-.694.643-2.33-.204-2.156-1.725z" fill-rule="evenodd"/>
 <path style="fill:#ffffff;" d="m53.268,98.762c.697-.122.743.408 1.294.431-.353,1.373-.275,3.176-.863,4.313-1.944-.727.121-2.78-.431-4.744z" fill-rule="evenodd"/>
 <path style="fill:#ffffff;" d="m128.749,99.625c.759.104.983.742.862,1.725h-1.294c-.183-.902.296-1.142.432-1.725z" fill-rule="evenodd"/>
 <path style="fill:#ffffff;" d="m189.996,99.625h1.294c.183.901-.296,1.142-.432,1.725-.759-.104-.983-.743-.862-1.725z" fill-rule="evenodd"/>
 <path style="fill:#ffffff;" d="m243.047,99.625c1.83-.018.534,3.086.432,3.882-.979-.46-.164-2.712-.432-3.882z" fill-rule="evenodd"/>
 <path style="fill:#ffffff;" d="m227.952,101.781c-1.356.207-1.687-.614-2.588-.862 .184-1.466 3.152-.967 2.588.862z" fill-rule="evenodd"/>
 <path style="fill:#ffffff;" d="m94.674,100.487h1.294c.122.697-.408.743-.432,1.294h-.862v-1.294z" fill-rule="evenodd"/>
 <path style="fill:#ffffff;" d="m160.234,101.35c1.284.038 1.154,2.572-.431,2.157-.356-1.22.609-1.118.431-2.157z" fill-rule="evenodd"/>
 <path style="fill:#ffffff;" d="m231.402,102.644c-.347,1.592-1.775.358-2.588,0 .347-1.592 1.775-.358 2.588,0z" fill-rule="evenodd"/>
 <path style="fill:#ffffff;" d="m189.996,102.212h1.294c.237.956-.823.614-.862,1.294-.507-.069-.365-.786-.432-1.294z" fill-rule="evenodd"/>
 <path style="fill:#ffffff;" d="m128.32 102.64h0.863v1.726h-0.863v-1.726z" fill-rule="evenodd"/>
 <path style="fill:#ffffff;" d="m94.674 103.08c1.258-0.634 1.258 1.928 0 1.294v-1.294z" fill-rule="evenodd"/>
 <path style="fill:#ffffff;" d="m233.99,104.8c-1,.138-1.655-.069-2.156-.431 .037-1.284 2.572-1.154 2.156.431z" fill-rule="evenodd"/>
 <path style="fill:#ffffff;" d="m190.43 103.94h0.862v1.726h-0.862v-1.726z" fill-rule="evenodd"/>
 <path style="fill:#ffffff;" d="m52.405,104.369h.863v1.294h-1.294c-.122-.697.407-.743.431-1.294z" fill-rule="evenodd"/>
 <path style="fill:#ffffff;" d="m54.13 104.37h1.294v1.294h-1.294v-1.294z" fill-rule="evenodd"/>
 <path style="fill:#ffffff;" d="m160.234,104.369c1.555-.413.766,1.861.432,2.156-.936.073-.196-1.529-.432-2.156z" fill-rule="evenodd"/>
 <path style="fill:#ffffff;" d="m235.284,104.8c1.098.053 1.673.627 1.726,1.725-1.698.436-2.505-.952-1.726-1.725z" fill-rule="evenodd"/>
 <path style="fill:#ffffff;" d="m94.243,105.663h1.294c.183.901-.295,1.142-.431,1.725-.759-.104-.983-.742-.863-1.725z" fill-rule="evenodd"/>
 <path style="fill:#ffffff;" d="m128.317,105.663c.92-.202.822.616.863,1.294-.349-.082-.43-.433-.863-.432v-.862z" fill-rule="evenodd"/>
 <path style="fill:#ffffff;" d="m55.424,106.525h1.294v1.726c-1.439.433-1.414-.599-1.294-1.726z" fill-rule="evenodd"/>
 <path style="fill:#ffffff;" d="m190.427,106.525h1.294c-.182.825-.156,1.856-1.294,1.726v-1.726z" fill-rule="evenodd"/>
 <path style="fill:#ffffff;" d="m240.029,106.957c.183.901-.296,1.142-.432,1.725-.878-.128-1.149-.864-1.726-1.294 .648-1.003 1.055-.658 2.158-.431z" fill-rule="evenodd"/>
 <path style="fill:#ffffff;" d="m51.542,106.957h1.294c-.182.825-.156,1.856-1.294,1.725v-1.725z" fill-rule="evenodd"/>
 <path style="fill:#ffffff;" d="m94.243,108.251h.863v1.725h-.863v-1.725z" fill-rule="evenodd"/>
 <path style="fill:#ffffff;" d="m160.23 108.25c1.259-0.634 1.259 1.928 0 1.294v-1.294z" fill-rule="evenodd"/>
 <path style="fill:#ffffff;" d="m56.718,108.682c1.001.148 2.021.279 1.725,1.725-1.35.2-1.925-.375-1.725-1.725z" fill-rule="evenodd"/>
 <path style="fill:#ffffff;" d="m17.468,109.545c2.186-.738 6.016.59 8.195,1.294-.295.1-.343,1.406-1.294,1.294-.358-.042-.85-1.292-.862-1.294-1.735-.261-4.29.148-6.039-1.294z" fill-rule="evenodd"/>
 <path style="fill:#ffffff;" d="m128.317,109.113c.92-.202.822.616.863,1.294-.349-.082-.43-.433-.863-.431v-.863z" fill-rule="evenodd"/>
 <path style="fill:#ffffff;" d="m190.43 109.11h0.862v1.726h-0.862v-1.726z" fill-rule="evenodd"/>
 <path style="fill:#ffffff;" d="m102.869,109.976h1.726c.435,1.297-.961.764-1.726.863v-.863z" fill-rule="evenodd"/>
 <path style="fill:#ffffff;" d="m107.183,110.407c-.134.585-1.08.358-1.726.432 .121-1 1.152-.992 1.726-.432z" fill-rule="evenodd"/>
 <path style="fill:#ffffff;" d="m51.111,110.407c1.297-.435.765.961.863,1.726h-1.294c-.183-.902.296-1.142.431-1.726z" fill-rule="evenodd"/>
 <path style="fill:#ffffff;" d="m108.045,110.839c-.137-.762 2.417-.77 1.726.431-.902.183-1.143-.295-1.726-.431z" fill-rule="evenodd"/>
 <path style="fill:#ffffff;" d="m115.809,111.701c-2.445-.331-3.344-.049-5.176-.431 .619-.871 5.017-1.236 5.176.431z" fill-rule="evenodd"/>
 <path style="fill:#ffffff;" d="m28.251,111.27c.338,1.82-2.313,1.473-2.156,0 .821-.808 1.083-.047 2.156,0z" fill-rule="evenodd"/>
 <path style="fill:#ffffff;" d="m58.443,110.839c1.607-.457 1.393.908 2.157,1.294-.576,1.095-2.819.272-2.157-1.294z" fill-rule="evenodd"/>
 <path style="fill:#ffffff;" d="m93.812,110.839c.697-.122.743.407 1.294.431-.082.349-.433.43-.431.863h-.863v-1.294z" fill-rule="evenodd"/>
 <path style="fill:#ffffff;" d="m116.671,110.839c.825.182 1.856.156 1.726,1.294-1.128.121-1.855-.158-1.726-1.294z" fill-rule="evenodd"/>
 <path style="fill:#ffffff;" d="m159.8 110.84h1.294v1.294h-1.294v-1.294z" fill-rule="evenodd"/>
 <path style="fill:#ffffff;" d="m119.259,111.27h1.726c.435,1.297-.961.764-1.726.863v-.863z" fill-rule="evenodd"/>
 <path style="fill:#ffffff;" d="m121.847,112.133c.796-1.61 5.361.07 1.294.431-.347-.228-.7-.45-1.294-.431z" fill-rule="evenodd"/>
 <path style="fill:#ffffff;" d="m190.858,111.27c1.298-.435.765.961.863,1.725h-1.294c-.182-.901.295-1.142.431-1.725z" fill-rule="evenodd"/>
 <path style="fill:#ffffff;" d="m28.683 111.7h1.725c0.34 1.661-2.065 1.661-1.725 0z" fill-rule="evenodd"/>
 <path style="fill:#ffffff;" d="m126.592,111.701h.863v.863h-.863v-.863z" fill-rule="evenodd"/>
 <path style="fill:#ffffff;" d="m132.63,112.564c-1.071,1.32-2.618-.516-4.313,0 .584-1.281 2.965-.376 4.313,0z" fill-rule="evenodd"/>
 <path style="fill:#ffffff;" d="m31.702,112.133c.941-.079 1.372.353 1.294,1.294-.941.078-1.372-.353-1.294-1.294z" fill-rule="evenodd"/>
 <path style="fill:#ffffff;" d="m133.493,112.564c.866-.147 1.35.088 1.294.863h-1.294v-.863z" fill-rule="evenodd"/>
 <path style="fill:#ffffff;" d="m137.375,112.564c.435,1.297-.961.764-1.725.863 .103-.759.742-.984 1.725-.863z" fill-rule="evenodd"/>
 <path style="fill:#ffffff;" d="m34.29,112.995c.697-.122.743.408 1.294.432 .17.837-1.965.63-1.294-.432z" fill-rule="evenodd"/>
 <path style="fill:#ffffff;" d="m60.6,112.995c.825.182 1.856.156 1.725,1.294-1.128.122-1.855-.157-1.725-1.294z" fill-rule="evenodd"/>
 <path style="fill:#ffffff;" d="m36.446,113.427c.866-.147 1.35.088 1.294.862h-1.294v-.862z" fill-rule="evenodd"/>
 <path style="fill:#ffffff;" d="m50.68,113.427c.837-.171.63,1.964-.431,1.294v-.863c.366.079.406-.169.431-.431z" fill-rule="evenodd"/>
 <path style="fill:#ffffff;" d="m93.812,113.427h1.294c-.03,1.263-.156,2.432-1.725,2.156-.177-1.039.787-.937.431-2.156z" fill-rule="evenodd"/>
 <path style="fill:#ffffff;" d="m146.001,113.858c-.121-.686 2.33-.604 1.294.431 .166-.165-1.299-.461-1.294-.431z" fill-rule="evenodd"/>
 <path style="fill:#ffffff;" d="m149.021,113.427h1.725c.435,1.297-.961.764-1.725.862v-.862z" fill-rule="evenodd"/>
 <path style="fill:#ffffff;" d="m190.427,113.427c.696-.122.742.407 1.294.431-.857,1.613.945,3.22-1.294,3.451-.037-.612-.071-1.222.431-1.294-.069-.506-.786-.364-1.294-.432-.321-1.328 1.185-.829.863-2.156z" fill-rule="evenodd"/>
 <path style="fill:#ffffff;" d="m39.034,113.858c.697-.122.743.408 1.294.431 .171.837-1.964.63-1.294-.431z" fill-rule="evenodd"/>
 <path style="fill:#ffffff;" d="m133.924,113.858c.896.242.914.673.431,1.294h-.863c-.121-.697.408-.743.432-1.294z" fill-rule="evenodd"/>
 <path style="fill:#ffffff;" d="m153.33 113.86c-0.947 1.317-2.762-0.498 0 0z" fill-rule="evenodd"/>
 <path style="fill:#ffffff;" d="m154.196,114.289c-.138-.761 2.416-.77 1.725.432-.901.182-1.142-.296-1.725-.432z" fill-rule="evenodd"/>
 <path style="fill:#ffffff;" d="m156.784,113.858h.862v.863h-.862v-.863z" fill-rule="evenodd"/>
 <path style="fill:#ffffff;" d="m158.509,113.858c1.873.01 2.879,1.144 4.313.431-.128,1.695-4.184.665-4.313-.431z" fill-rule="evenodd"/>
 <path style="fill:#ffffff;" d="m165.411,114.721c-.424.696-1.151.993-1.726.431 .424-.697 1.15-.993 1.726-.431z" fill-rule="evenodd"/>
 <path style="fill:#ffffff;" d="m167.999,114.721c-.647,1.003-1.055.658-2.157.431 .043-1.098 1.607-1.019 2.157-.431z" fill-rule="evenodd"/>
 <path style="fill:#ffffff;" d="m180.506,114.721c.169,2.548-1.868.438-2.156.431-1.021-.024-1.705,1.333-2.157,0 1.225-.659 3.12-.904 4.313-.431z" fill-rule="evenodd"/>
 <path style="fill:#ffffff;" d="m41.622 115.15c1.606-1.506 2.189 1.176 0 0z" fill-rule="evenodd"/>
 <path style="fill:#ffffff;" d="m63.619,117.309c-1.38-.057-1.897-.978-1.725-2.588 1.601-.157 2.541,1.645 1.725,2.588z" fill-rule="evenodd"/>
 <path style="fill:#ffffff;" d="m168.429,114.721h1.726c.435,1.297-.961.764-1.726.862v-.862z" fill-rule="evenodd"/>
 <path style="fill:#ffffff;" d="m171.449,114.721c.865-.147 1.35.088 1.294.862h-1.294v-.862z" fill-rule="evenodd"/>
 <path style="fill:#ffffff;" d="m173.174,115.152c-.073-.936 1.529-.195 2.156-.431-.043,1.097-1.607,1.019-2.156.431z" fill-rule="evenodd"/>
 <path style="fill:#ffffff;" d="m180.938,114.721c2.373.341 4.881-.184 8.195,0-1.811,1.279-6.914,1.701-8.195,0z" fill-rule="evenodd"/>
 <path style="fill:#ffffff;" d="m94.243,116.446c.719.857-.039.548 0,1.725-1.661.34-1.661-2.065 0-1.725z" fill-rule="evenodd"/>
 <path style="fill:#ffffff;" d="m133.924,116.446c.733-.159.813.336.862.863-.367-.08-.407.168-.431.431-.505-.07-.363-.787-.431-1.294z" fill-rule="evenodd"/>
 <path style="fill:#ffffff;" d="m211.993,123.347c1.031.263 3.13-.541 3.45.432-.06,1.952-2.925,1.101-4.744,1.294-1.496-3.36 3.352-3.348 3.45-6.47-.931-1.451-1.98.566-3.019.431 .29-4.519 4.645-2.473 4.744,0 .102,2.495-3.285,1.958-3.881,4.313z" fill-rule="evenodd"/>
 <path style="fill:#ffffff;" d="m67.933 123.35c-3.158-1.242-3.067-3.294-4.745-5.607 2.24-0.415 3.38 3.735 4.745 5.607z" fill-rule="evenodd"/>
 <path style="fill:#ffffff;" d="m48.955,117.74h1.725c-.224.638-.638,1.086-.863,1.725-.759-.104-.983-.742-.862-1.725z" fill-rule="evenodd"/>
 <path style="fill:#ffffff;" d="m191.29,117.74c1.01.111.248,1.895 0,2.157-1.514-.34-.498-1.509 0-2.157z" fill-rule="evenodd"/>
 <path style="fill:#ffffff;" d="m134.355,118.171c.995-.132.479,1.246 1.294,1.294-.133.586-1.08.357-1.725.432-.182-.902.296-1.143.431-1.726z" fill-rule="evenodd"/>
 <path style="fill:#ffffff;" d="m92.949,119.033h1.294c.183.902-.295,1.143-.431,1.726-.759-.104-.983-.742-.863-1.726z" fill-rule="evenodd"/>
 <path style="fill:#ffffff;" d="m48.955,119.896c.696-.121.742.408 1.294.432 .314,1.176-.857.867-.863,1.725-1.352-.298-.562-1.151-.431-2.157z" fill-rule="evenodd"/>
 <path style="fill:#ffffff;" d="m134.787,120.759c1.138-.131 1.113.9 1.294,1.726h-1.725c-.183-.903.295-1.143.431-1.726z" fill-rule="evenodd"/>
 <path style="fill:#ffffff;" d="m192.152,120.759c.122,1.128-.157,1.855-1.294,1.726-.121-1.129.158-1.856 1.294-1.726z" fill-rule="evenodd"/>
 <path style="fill:#ffffff;" d="m92.518,121.19c2.128-.437 2.128,2.593 0,2.156v-2.156z" fill-rule="evenodd"/>
 <path style="fill:#ffffff;" d="m30.408,122.916c.901-.184 1.142.295 1.726.431-.805,2.115-1.84,4.661-1.294,6.901h-2.157c.782-2.361 1.572-5.601 1.725-7.332z" fill-rule="evenodd"/>
 <path style="fill:#ffffff;" d="m48.092,122.916h1.294c.183.9-.295,1.142-.431,1.725-.759-.104-.984-.743-.863-1.725z" fill-rule="evenodd"/>
 <path style="fill:#ffffff;" d="m136.512,123.347c.183.901-.296,1.143-.432,1.726-.566-.152-.678-.76-1.294-.863 .105-.759.743-.983 1.726-.863z" fill-rule="evenodd"/>
 <path style="fill:#ffffff;" d="m191.721,123.347c1.352.298.562,1.151.431,2.157-1.928.072-1.113-1.518-.431-2.157z" fill-rule="evenodd"/>
 <path style="fill:#ffffff;" d="m38.603,125.072c-1.062.426-2.446-1.067-3.02,1.294 .667.771 2.589.286 3.02,1.294 .281,1.862-.746,2.418-1.294,3.451-7.549,1.24-1.881-10.98 1.294-6.039zm-3.451,4.744h1.725c.59-.551.59-2.036 0-2.588-1.958-.146-2.432,1.188-1.725,2.588z" fill-rule="evenodd"/>
 <path style="fill:#ffffff;" d="m73.54,129.385c-3.025-.712-4.467-3.008-6.039-5.176 2.36-.26 4.524,3.176 6.039,5.176z" fill-rule="evenodd"/>
 <path style="fill:#ffffff;" d="m92.949,123.778c.759.104.983.742.863,1.726h-1.294c-.183-.902.295-1.143.431-1.726z" fill-rule="evenodd"/>
 <path style="fill:#ffffff;" d="m54.993,125.072c.502-.07.768.096.863.432-.111,1.441.049,6.577-2.157,7.332-.386-2.377.468-6.145 1.294-7.764z" fill-rule="evenodd"/>
 <path style="fill:#ffffff;" d="m112.358,125.072h1.725c.063,2.938-.16,5.59-1.294,7.332-1.856-1.211.017-5.82-.431-7.332z" fill-rule="evenodd"/>
 <path style="fill:#ffffff;" d="m161.097,133.268c-1.856.131-3.481.03-3.451-1.726 .882-.95 2.863.911 3.451-.862-.316-1.553-3.4-.338-3.882-1.726 .882-8.866 9.454.558 3.882,4.314zm-2.156-4.314c1.062.057 2.078.065 2.588-.432 .096-.815-.486-.951-.432-1.726h-2.156v2.158z" fill-rule="evenodd"/>
 <path style="fill:#ffffff;" d="m241.32 125.07c3.354 2.945 1.194 10.65-3.02 11.215 2.64-2.468 3.687-7.858 3.02-11.215z" fill-rule="evenodd"/>
 <path style="fill:#ffffff;" d="m47.661,125.504h1.294c.183.9-.296,1.142-.432,1.725-.759-.104-.983-.743-.862-1.725z" fill-rule="evenodd"/>
 <path style="fill:#ffffff;" d="m121.847,127.66c-.583,2.579-1.005,5.32-4.745,4.744-3.68-3.545 2.109-10.09 4.745-4.744zm-3.019,3.451c1.26-.466 1.397-2.055 1.294-3.883-2.549-1.955-4.589,3.726-1.294,3.883z" fill-rule="evenodd"/>
 <path style="fill:#ffffff;" d="m135.649,125.935h1.294c.183.901-.295,1.143-.431,1.726-.759-.104-.983-.743-.863-1.726z" fill-rule="evenodd"/>
 <path style="fill:#ffffff;" d="m62.757,126.797c-.016,2.017-1.227.822-2.588.863-.553,1.703 1.256,1.043 1.294,2.156 .814,3.871-5.565,5.593-5.607,1.295 1.669-.375 1.535,1.053 2.588,1.293 1.013-.137.965-1.334 1.726-1.725-.376-.631-.343-1.67-1.726-1.295-.223-2.247 2.295-4.012 4.313-2.587z" fill-rule="evenodd"/>
 <path style="fill:#ffffff;" d="m92.518,126.366h1.294c-.236.626.504,2.229-.431,2.156-1.45.444-.672-1.34-.863-2.156z" fill-rule="evenodd"/>
 <path style="fill:#ffffff;" d="m191.29,126.366c1.137-.13 1.415.597 1.294,1.726h-1.294v-1.726z" fill-rule="evenodd"/>
 <path style="fill:#ffffff;" d="m47.229 128.09c1.258-0.635 1.258 1.928 0 1.293v-1.293z" fill-rule="evenodd"/>
 <path style="fill:#ffffff;" d="m136.512,128.522c.733-.158.813.337.862.862-.367-.078-.407.169-.431.432-.505-.069-.363-.786-.431-1.294z" fill-rule="evenodd"/>
 <path style="fill:#ffffff;" d="m191.721,128.522c1.274-.013 1.46,1.997.862,2.589-1.63.369-1.526-1.931-.862-2.589z" fill-rule="evenodd"/>
 <path style="fill:#ffffff;" d="m92.518,129.816h1.294c.122,1.129-.158,1.855-1.294,1.726v-1.726z" fill-rule="evenodd"/>
 <path style="fill:#ffffff;" d="m136.512,130.248c1.919-.604 2.336,1.979.431,1.725 .055-.774-.527-.91-.431-1.725z" fill-rule="evenodd"/>
 <path style="fill:#ffffff;" d="m46.798,130.68h1.294c.085,1.234.054,2.354-1.294,2.156v-2.156z" fill-rule="evenodd"/>
 <path style="fill:#ffffff;" d="m87.342,130.68c1.514-.472 1.155,2.646-.431,1.725 .335-.384.463-.974.431-1.725z" fill-rule="evenodd"/>
 <path style="fill:#ffffff;" d="m92.949,131.973c1.137-.129 1.416.598 1.294,1.727-1.451.995-2.229-.571-1.294-1.727z" fill-rule="evenodd"/>
 <path style="fill:#ffffff;" d="m192.15 131.97h0.863v1.727h-0.863v-1.727z" fill-rule="evenodd"/>
 <path style="fill:#ffffff;" d="m137.375,132.836c.902-.183 1.143.295 1.726.432-.376.63-.343,1.67-1.726,1.293v-1.725z" fill-rule="evenodd"/>
 <path style="fill:#ffffff;" d="m46.367,133.699c.901-.184 1.142.295 1.725.431-.697.597-.536,2.052-2.157,1.726-.356-1.219.608-1.118.432-2.157z" fill-rule="evenodd"/>
 <path style="fill:#ffffff;" d="m192.152,134.561c1.283-.091 1.521,1.539.863,2.157-.943-.064-.927-1.087-.863-2.157z" fill-rule="evenodd"/>
 <path style="fill:#ffffff;" d="m88.205,139.306c.828-1.329 2.146-2.167 2.156-4.313 1.38.56.435,4.987-2.156,4.313z" fill-rule="evenodd"/>
 <path style="fill:#ffffff;" d="m94.243,134.992h.863v.863h-.863v-.863z" fill-rule="evenodd"/>
 <path style="fill:#ffffff;" d="m139.1,137.148c-.846.209-1.389-1.977-.432-2.156 1.555-.412.765,1.862.432,2.156z" fill-rule="evenodd"/>
 <path style="fill:#ffffff;" d="m45.935 136.29c1.797-0.477 1.797 3.062 0 2.588v-2.588z" fill-rule="evenodd"/>
 <path style="fill:#ffffff;" d="m96.399,136.287c-.366,2.221-1.602,3.573-2.588,5.176 .532,1.31 1.483-.469 2.588,0-.319,1.406-2.153,1.297-3.451,1.725 1.095-1.807-.801-.945-1.725-1.725 1.422-1.166 3.819-1.357 3.019-4.745 .502-.363 1.157-.57 2.157-.431z" fill-rule="evenodd"/>
 <path style="fill:#ffffff;" d="m139.962,137.148c.183.902-.295,1.143-.431,1.727-1.251-.078-1.039-2.051.431-1.727z" fill-rule="evenodd"/>
 <path style="fill:#ffffff;" d="m193.015,137.58h.862c.121.697-.407.742-.432,1.295h-.862c-.121-.697.408-.743.432-1.295z" fill-rule="evenodd"/>
 <path style="fill:#ffffff;" d="m92.518,138.012c-.081,1.213-.75,1.838-2.157,1.725 .081-1.214.75-1.838 2.157-1.725z" fill-rule="evenodd"/>
 <path style="fill:#ffffff;" d="m26.095,138.875c.901-.184 1.142.295 1.725.431 .138.76-2.416.77-1.725-.431z" fill-rule="evenodd"/>
 <path style="fill:#ffffff;" d="m57.581,139.306c-.009,1.183-2.035,1.024-2.588.431 .575-.616 1.918-1.141 2.588-.431z" fill-rule="evenodd"/>
 <path style="fill:#ffffff;" d="m174.468,138.875c1.724,2.014.554,6.922 2.156,9.057-.91.384-1.274,1.313-2.588,1.295-1.716-3.657.13-5.904.432-10.352z" fill-rule="evenodd"/>
 <path style="fill:#ffffff;" d="m28.683 139.31h1.725c0.34 1.661-2.065 1.661-1.725 0z" fill-rule="evenodd"/>
 <path style="fill:#ffffff;" d="m45.935,139.306c.697-.122.743.407 1.294.431-.052,1.098-.627,1.674-1.725,1.727-.357-1.221.608-1.119.431-2.158z" fill-rule="evenodd"/>
 <path style="fill:#ffffff;" d="m139.531,139.306c1.351-.2 1.925.375 1.725,1.726-1.35.198-1.925-.376-1.725-1.726z" fill-rule="evenodd"/>
 <path style="fill:#ffffff;" d="m32.996,139.736c.302,1.494-1.512,1.548-2.156.863 .062-.943 1.086-.925 2.156-.863z" fill-rule="evenodd"/>
 <path style="fill:#ffffff;" d="m193.02 139.74c1.473-0.156 1.819 2.496 0 2.157v-2.157z" fill-rule="evenodd"/>
 <path style="fill:#ffffff;" d="m39.897,142.324c-1.96-.771-5.443-.02-6.47-1.725 2.186-.031 5.484-.112 6.47,1.725z" fill-rule="evenodd"/>
 <path style="fill:#ffffff;" d="m58.443,140.168c1.241.721-.801,1.746-1.725,1.726-.415-1.566 1.938-.363 1.725-1.726z" fill-rule="evenodd"/>
 <path style="fill:#ffffff;" d="m40.759,141.463c.627.235 2.229-.505 2.157.431 .485,1.479-3.138,1.277-2.157-.431z" fill-rule="evenodd"/>
 <path style="fill:#ffffff;" d="m140.825,141.463c1.138-.132 1.112.9 1.294,1.725-1.45.996-2.228-.571-1.294-1.725z" fill-rule="evenodd"/>
 <path style="fill:#ffffff;" d="m50.249,144.051c-2.688-1.121-5.979.68-6.901-1.727 1.888.011 6.085.156 6.901,1.727z" fill-rule="evenodd"/>
 <path style="fill:#ffffff;" d="m230.97 141.89c1.715 1.454-2.508 3.593-5.176 3.45 0.941-1.934 3.863-1.888 5.176-3.45z" fill-rule="evenodd"/>
 <path style="fill:#ffffff;" d="m193.446,142.756c.759.104.983.742.863,1.726-1.344.202-1.542-1.086-.863-1.726z" fill-rule="evenodd"/>
 <path style="fill:#ffffff;" d="m50.68,143.188c1-.138 1.656.069 2.157.432-.383.937-2.409,1.317-2.157-.432z" fill-rule="evenodd"/>
 <path style="fill:#ffffff;" d="m54.993,143.619c.34,1.66-2.065,1.66-1.725,0 1.176.039.868-.719 1.725,0z" fill-rule="evenodd"/>
 <path style="fill:#ffffff;" d="m55.855,144.051h1.726c.435,1.297-.961.764-1.726.861v-.861z" fill-rule="evenodd"/>
 <path style="fill:#ffffff;" d="m97.693,144.481c.346,1.64-2.04.548-3.019.862-.1-1.14 2.666-1.601 3.019-.862z" fill-rule="evenodd"/>
 <path style="fill:#ffffff;" d="m141.256,144.051h1.726c.047,1.072.808,1.334 0,2.156-1.356.062-1.482-1.106-1.726-2.156z" fill-rule="evenodd"/>
 <path style="fill:#ffffff;" d="m193.45 145.34c1.259-0.634 1.259 1.928 0 1.295v-1.295z" fill-rule="evenodd"/>
 <path style="fill:#ffffff;" d="m97.262,145.775h2.156c.443,1.449-1.341.672-2.156.863v-.863z" fill-rule="evenodd"/>
 <path style="fill:#ffffff;" d="m142.98 146.64h1.725v1.725c-1.001-0.149-2.021-0.28-1.725-1.725z" fill-rule="evenodd"/>
 <path style="fill:#ffffff;" d="m56.718,148.795c-.901.183-1.142-.296-1.726-.432 .079-1.251 2.051-1.039 1.726.432z" fill-rule="evenodd"/>
 <path style="fill:#ffffff;" d="m193.88 147.5c1.473-0.157 1.819 2.495 0 2.156v-2.156z" fill-rule="evenodd"/>
 <path style="fill:#ffffff;" d="m144.276,148.795c1.128-.122 1.855.157 1.725,1.294-.807.847-2.078.249-1.725-1.294z" fill-rule="evenodd"/>
 <path style="fill:#ffffff;" d="m175.331,150.089c.904.82 2.275,1.175 2.157,3.019-1.189-.538-2.093-1.358-2.157-3.019z" fill-rule="evenodd"/>
 <path style="fill:#ffffff;" d="m147.727,152.245c-1.376.37-1.334-.679-2.157-.862 .321-1.6 2.328-.52 2.157.862z" fill-rule="evenodd"/>
 <path style="fill:#ffffff;" d="m194.74,150.52c.837-.17.631,1.965-.431,1.295v-.863c.366.079.406-.169.431-.432z" fill-rule="evenodd"/>
 <path style="fill:#ffffff;" d="m36.446,150.951c1.177-.314.868.857 1.725.863-1.536,1.914.11,7.01-3.019,7.332 .844-2.32.613-5.712 1.294-8.195z" fill-rule="evenodd"/>
 <path style="fill:#ffffff;" d="m7.548,151.814c-.323,1.401-.781,2.669-1.294,3.881-.97-.998.16-3.556 1.294-3.881z" fill-rule="evenodd"/>
 <path style="fill:#ffffff;" d="m40.328,151.814c1.97.042 4.375-.35 5.176.862-.91,2.032-4.442.345-5.176-.862z" fill-rule="evenodd"/>
 <path style="fill:#ffffff;" d="m173.174,152.677c1.19-.185.404,1.608 1.294,1.726-.739,1.39-1.171-1.082-1.294-1.726z" fill-rule="evenodd"/>
 <path style="fill:#ffffff;" d="m220.62 153.11c-1.044 1.415-2.061-1.199 0 0z" fill-rule="evenodd"/>
 <path style="fill:#ffffff;" d="m149.45 153.54c-1.018 1.388-1.744-1.517 0 0z" fill-rule="evenodd"/>
 <path style="fill:#ffffff;" d="m194.74,153.107c1.638,1.383 2.202,3.837 4.745,4.313-.151,1.431-2.486.677-3.882.862-.192-1.151.14-3.745-.863-5.175z" fill-rule="evenodd"/>
 <path style="fill:#ffffff;" d="m171.017,153.539c1.137-.13 1.416.598 1.295,1.726-.631-.376-1.671-.343-1.295-1.726z" fill-rule="evenodd"/>
 <path style="fill:#ffffff;" d="m42.485,154.402c.696-.122.742.407 1.294.431-1.025,1.419-1.502,3.386-3.451,3.882-.84-1.492 1.827-2.613 2.157-4.313z" fill-rule="evenodd"/>
 <path style="fill:#ffffff;" d="m151.608,156.127c-1.376.37-1.334-.679-2.157-.862 .321-1.601 2.329-.52 2.157.862z" fill-rule="evenodd"/>
 <path style="fill:#ffffff;" d="m120.553,156.127c.531.188.886.553.863,1.294-.531-.189-.886-.552-.863-1.294z" fill-rule="evenodd"/>
 <path style="fill:#ffffff;" d="m152.04,156.127h.863c-.08.367.168.407.431.432v.862c-.367-.079-.407.169-.431.432h-.863c.079-.367-.168-.407-.431-.432v-.862c.366.079.406-.168.431-.432z" fill-rule="evenodd"/>
 <path style="fill:#ffffff;" d="m159.803,156.127c.759.104.983.742.862,1.726-.757-.105-.982-.743-.862-1.726z" fill-rule="evenodd"/>
 <path style="fill:#ffffff;" d="m161.96,156.559c1.977.287-.347,2.611 0,0z" fill-rule="evenodd"/>
 <path style="fill:#ffffff;" d="m187.408,156.559c1-.138 1.656.069 2.156.432-.037,1.282-2.571,1.153-2.156-.432z" fill-rule="evenodd"/>
 <path style="fill:#ffffff;" d="m202.073,157.853c-1.406-.077-2.076,1.014-2.157-.862 .644-.686 2.459-.632 2.157.862z" fill-rule="evenodd"/>
 <path style="fill:#ffffff;" d="m204.661,156.559c.429,1.964-2.201,2.127-2.157.432 .5-.363 1.156-.57 2.157-.432z" fill-rule="evenodd"/>
 <path style="fill:#ffffff;" d="m207.249,157.853c-.815-.191-2.6.587-2.157-.862 .644-.686 2.458-.632 2.157.862z" fill-rule="evenodd"/>
 <path style="fill:#ffffff;" d="m192.583,156.99c1.127-.121 2.158-.146 1.726,1.293-.319-.687-2.111.099-1.726-1.293z" fill-rule="evenodd"/>
 <path style="fill:#ffffff;" d="m7.979,158.283c1.601.988.81,4.367 1.294,6.471-2.026.014-.499-3.526-2.156-3.883 .732-.418 1.108-1.191.862-2.588z" fill-rule="evenodd"/>
 <path style="fill:#ffffff;" d="m133.062,158.715c.062-.166.913-.763 1.294-.432 .852.741-1.904,2.059-1.294.432z" fill-rule="evenodd"/>
 <path style="fill:#ffffff;" d="m135.218,159.146c-.171-.838 1.964-.631 1.294.432h-.863c.08-.367-.168-.407-.431-.432z" fill-rule="evenodd"/>
 <path style="fill:#ffffff;" d="m198.622,162.597c1.706,1.457.93,5.397 1.726,7.764h-2.156c.621-2.875-1.163-6.642.43-7.764z" fill-rule="evenodd"/>
 <path style="fill:#ffffff;" d="m58.875,174.242c1.977.288-.347,2.612 0,0z" fill-rule="evenodd"/>
 <path style="fill:#ffffff;" d="m20.919,177.693c1.191.39 1.519,1.644 1.725,3.02-.773-.056-.91.527-1.725.431-.371-.349-.256-1.182-.863-1.294-.321-1.329 1.184-.829.863-2.157z" fill-rule="evenodd"/>
 <path style="fill:#ffffff;" d="m196.897,178.556c.768.315.062.784 0,1.294-.769-.317-.063-.785 0-1.294z" fill-rule="evenodd"/>
 <path style="fill:#ffffff;" d="m61.463,180.281c.012.419.528.334.862.432-.082.349-.433.43-.431.861h-.863v-2.156c.495.152 1.094.76.432.863z" fill-rule="evenodd"/>
 <path style="fill:#ffffff;" d="m26.957,182.438h1.294c.187,1.625-.911,1.965-1.725,2.588-1.039.177-.938-.787-2.157-.432-.122-1.128.158-1.855 1.294-1.725-.454,2.236 1.459.727 1.294-.431z" fill-rule="evenodd"/>
 <path style="fill:#ffffff;" d="m29.545,183.731c.108,1.259-.812,1.488-1.294,2.157-.902-.382.139-2.409 1.294-2.157z" fill-rule="evenodd"/>
 <path style="fill:#ffffff;" d="m198.191,183.731c2.403.327-2.346,5.003 1.294,5.176-1.438,3.426 2.089,4.14 1.725,7.764-1.845-2.468-3.562-5.063-4.744-8.194 .428-1.729 2.053-2.26 1.725-4.746z" fill-rule="evenodd"/>
 <path style="fill:#ffffff;" d="m202.503,196.24c.541.568 1.133,4.85-.431,4.744 .772-1.744.029-2.476.431-4.744z" fill-rule="evenodd"/>
 <path style="fill:#ffffff;" d="m217.6,208.316c1.474-.323.548,1.752 2.156,1.294-.098.622-1.287.15-1.294.862-.942-.062-.925-1.085-.862-2.156z" fill-rule="evenodd"/>
 <path style="fill:#ffffff;" d="m213.718,210.473c-.225.639-.639,1.088-.863,1.726-.914-.137-.093-2.045.863-1.726z" fill-rule="evenodd"/>
 <path style="fill:#ffffff;" d="m37.309,227.295c.525.912 1.623,1.252 1.725,2.588-1.833.394-1.842-1.034-1.725-2.588z" fill-rule="evenodd"/>
 <path style="fill:#ffffff;" d="m314.215,68.569c-4.59-3.558-8.443-6.985-9.921-13.371 .019.077.524-.744.432-1.294-.411-2.456-2.244-6.013-3.02-7.764v-3.45c-3.584-.35-1.301,3.328-.431,5.607 .935,2.448 1.538,5.312 2.156,7.764 1.317,5.226 4.607,8.604 6.47,11.646-1.76.501-.126,2.675.863,3.019 .295-1.355-.05-1.762.431-2.157 .519,1.208 2.237,1.214 3.02,2.157-1.703.741-2.032,2.855-3.02,4.313 .547.748 1.458,1.13 1.294,2.588-4.89,1.634-10.64.822-14.665,3.882-2.578-.584-2.564-3.761-5.176-4.313-.637,1.816 2.638,1.924.863,3.451 .396-1.833-1.034-1.842-2.588-1.726-.81-1.491-1.567-3.034-1.726-5.176-.911-.573-1.274.213-2.588-.431-.324,1.619 1.647.94 1.726,2.157-1.036.545.237,3.401-.863,3.882-1.288-.164-3.512-5.088-3.019-1.726-.995-.443-1.392-1.484-3.02-1.294-.767,2.837-7.908.441-9.489-1.294-.323,1.474 1.753.548 1.294,2.157-1.582-1.888-3.602.602-5.606.863-3.22-2.532-7.357-4.145-11.646-5.607-.142-1.008-.518-1.782-.862-2.588h-2.156c-.744,3.248 1.891,6.302 4.312,7.764 1.396.533.33-1.396 1.726-.862 5.065-.614 8.313,5.09 3.882,7.764 .271.735 1.303.71 1.726,1.294-3.045-1.08-1.232,3.176-3.451,1.725 .138,1.013.682,1.619.432,3.02-1.517.1-1.9,3.343-3.02,1.294-.067.507.074,1.224-.431,1.294-.671,1.533 1.465.26 1.294,1.294-1.054,1.093-.919-.91-2.588-.432 .047,1.073.808,1.335 0,2.157-.616-.104-.728-.71-1.294-.863 .618,2.12-.835,2.007-1.294,2.588-.124.157-.025,2.366-1.294.863-.248.758.521,2.534-.432,2.588-.857-.005-.549-1.177-1.726-.863-.357,1.126 1.305,2.367 0,3.02-.68-.039-.337-1.1-1.294-.863-.263,1.031.542,3.129-.431,3.451-.06-.803-.284-1.441-.863-1.725-.989,1.402.568,2.669-.431,3.882-1.55-.87-2.947-3.791-5.176-2.588-.514,1.807 1.817.77 2.156,1.725-1.191,1.085-1.635,2.255-1.726,3.451-1.375-.207-.294-2.869-1.294-3.451-.256,1.955-.587,4.717.432,6.47-1.079-.569-1.351,1.705-1.726.431-.104-1.764.421-4.158-.862-4.744-.03,1.695-.209,3.242-.862,4.313-.138-1.013-.682-1.619-.432-3.019-1.177-.039-.868.718-1.726,0-.042-1.539-.201-2.962-1.294-3.451-.306,1.532-.567,5.413 1.294,6.901 .067-.507-.074-1.224.432-1.294 1.125.457.902,2.261 2.156,2.588-.136.583-.613.824-.431,1.726 2.135,1.361.242,5.238 2.588,5.607 .177-2.268.796-4.093 2.156-5.176 1.074,1.858 3.16,6.128 1.726,7.764-.188-2.688-1.569-4.182-2.588-6.039 3.276,8.392 2.475,19.556-6.039,21.566-.979,2.046-2.742,5.587-5.606,4.312 1.529-.638 4.048-2.549 3.45-3.881-1.049,2.688-5.057,2.419-6.038,5.176 1.485-.582 2.854,1.029 5.606.431-.043,1.769-.085,3.535.432,4.745-.265-.127-1.66-1.073-1.726,0-1.103,5.045-6.308,12.464-12.077,11.645-.189,1.248-.909,1.967-2.156,2.157-.47-1.098 2.02-1.673 0-1.726-.889.117-.103,1.91-1.294,1.726-1.34-2.419-5.46,2.55-7.332-.432 1.065-3.967 2.33-7.733 5.176-9.92 2.479-.322 4.059.254 5.606.862-.521-.393-1.162-2.07-1.293-2.156-.938-.611-2.869.233-2.588-.863 .258-1.006 3.566,1.449 1.725-.431-.698-.713-1.983.966-2.156-.432 1.071-1.933 3.664-.247 5.176,0-.973-1.759-3.047-2.417-4.313-3.882-1.062.51.884,1.629-.431,2.156-.646-.647-.772-1.816-1.726-2.156-1.359,1.047 1.996,2.828-.863,3.02-.796-6.918-5.088-.047-1.294,0-.392-.119-1.448-1.607-.431-1.726 1.611.536.81,2.203 1.294,3.02 1.102.465 1.51-1.856 2.156-.432-.628,2.323-3.346-.124-3.882,2.157-.375-.632-.646-1.367-1.726-1.295 1.546,1.949-2.063,1.589-.431,3.451-1.07-.063-2.094-.08-2.157.862 1.551.334 1.747,4.272.863,5.607-.074-1.22.371-2.959-.863-3.02-.217,2.553-1.029,4.974-1.294,6.47-.542,3.067-.62,6.958-.862,9.059-.71,6.165 3.243,11.193 1.294,15.096-.099-.765.435-2.16-.862-1.726 .224,3.962-.577,6.899-1.294,9.921 .678.041 1.495-.059 1.294.862-.995-.856-.479.108-1.294.431 .617,2.977 1.223,5.966 2.156,8.627 .265.598 1.66.064 1.726.862 .491,5.403 5.232,6.557 6.47,11.214-1.518,3.084-5.774,3.428-7.764,6.039 2.14-.703 1.375,1.5 3.019,1.294 1.343-1.965 3.331-3.283 5.176-4.745 1.8,2.803 3.929,5.273 5.607,8.195-4.404,1.47-8.452-.992-12.077-1.725-.188-1.002-1.904-1.154-.862-2.156-1.039-.178-.938.787-2.156.431-1.316-3.885-.118-9.804-3.882-12.077-1.128,1.029-.128,4.186-1.726,4.744-2.317-3.03-2.12-8.086-2.588-12.939-.333-3.457-1.472-6.76-2.156-9.92-.178-.816.259-1.797 0-2.588-.986-3.011-3.138-5.18-3.882-8.195-.428-1.729-.06-3.655-.432-5.607-.332-1.742-1.435-4.557-1.726-6.9-.462-3.727-.817-5.632-1.294-8.627-.887-5.582-1.066-10.221-5.176-12.076 .994,3.606 4.176,5.025 3.882,9.92-2.263-.612-2.18-3.57-4.744-3.882-2.303-4.167-1.548-11.392-5.176-14.233-.538,4.355 4.082,6.896 1.294,10.783-.39-1.911-1.534-3.066-3.45-3.451-.043,2.057 1.664,2.361 1.725,4.313-1.354.204-1.14-1.161-2.156-1.294-.122,1.313 1.382,1.678.432,2.588-1.082-.356-1.365-1.511-2.157-2.156-.333,1.102 1.688,1.982.432,2.588-1.297-.717-1.604-2.421-3.02-3.02-.376,1.279 1.843,2.128.862,2.588-1.44-.571-2.051-1.975-3.019-3.02-.547,1.315 1.475,2.196.431,2.588-1.637-.663-1.813-2.787-3.45-3.45-.318,1.777 2.54,2.606 1.726,3.45-.168-.277-1.824,1.065-2.588-.431-.874,1.915 2.531,1.736 1.294,2.588-2.827-2.04-6.206-1.786-8.626-4.745-.045,1.914 2.24,1.498 2.588,3.02-2.536,1.549-2.885-1.327-4.314-2.156-.258.768 1.264,1.791 0,2.156-.68-.039-.337-1.1-1.294-.862-2.205,1.776-8.073.728-12.508,2.156-.041-.678.058-1.495-.862-1.294-.17.742.64,1.105 0,1.294-1.859.421-1.255-1.62-2.588-1.726-1.058.574.777,1.303-.432,1.726-3.038.749-4.235.419-6.038-1.294-.068.508.074,1.225-.432,1.294-1.42-.161-.87-2.293-2.588-2.156-.118,1.265 1.728,1.602 0,2.156-.435-.858-.746-1.843-1.725-2.156 .258,1.12-.173,1.552-1.294,1.294-.807-.631-.509-2.367-2.157-2.156-.412.803 1.292,1.441 0,1.725-1.873-.57-4.079-.809-4.744-2.588-.165,1.73-3.198-.322-3.02-1.725-1.396-.533-.33,1.395-1.725.862 .208-1.358-1.324-.977-.863-2.588-1.054.617-1.576.671-2.157.862 .614,2.118 3.201,2.264 3.882,4.313-2.099-1.162-.179.549-.862.862-2.406-.555-4.908-3.027-6.47-3.02-.2,2.369 3.631,2.967 3.019,4.313-2.131-.888-3.975-2.063-6.039-3.019-.099,2.399 2.55,2.051 3.451,3.45-3.354-.097-4.274-2.627-6.47-3.882-.242-1.25-.673.662-1.294.432-5.709-5.424-13.184-8.876-21.135-11.646-1.65-.574-3.832-1.605-4.313-2.588-1.611-.039-1.229-.482-2.588,0 .103-.615.71-.727.862-1.293-1.442-.571-3.496-.531-4.744-1.295 1.628-.672 2.685-1.916 4.313-2.588 .016-5.178 6.584-1.227 9.489-2.588-.023.742.332,1.105.862,1.295 .395-.757.802-1.499 2.157-1.295 .177,1.039-.788.938-.431,2.156 1.867.143 1.062-2.389 3.019-2.156 .604,1.41-2.146,2.789 0,3.02 1.02-.562.832-2.332 1.294-3.451-.944-.637-2.322-.841-3.019-1.725 .714-.866 1.548-3.299-.432-3.451-.017,1.422.177,3.053-1.294,3.02-.786-.5 1.059-3.957-.862-4.312-.263,1.031.541,3.129-.432,3.45h-1.294c-.007-1.419 1.843-3.687 0-4.313-1.073,1.084.527,4.84-2.156,4.313-.41-1.06 2.011-3.665 0-4.745-1.108,1.193.36,4.961-2.157,4.745 .103-.796 1.398-3.899-.431-3.882-.047,2.109-.018,4.296-1.726,4.744-.908-.959.455-2.08 0-3.882-1.559-.408-.602,1.699-.862,2.589-1.601.268-1.773,1.964-2.157,3.449-3.375,4.102-8.567,6.386-13.802,8.627 .894.257 2.833-.533 3.019.432-3.666.33-2.881,8.836-6.039,6.9-1.093,1.054.91.92.432,2.588-.815.098-.952-.486-1.726-.431-.314,1.177.857.868.863,1.726-2.07-1.233-1.39,1.595-1.725,2.156-.117.196-1.165-.191-1.294,0-.265.394.271,1.336 0,1.725-.4.574-2.204,1.234-3.02,2.157-1.444,1.635-3.273,2.919-4.313,4.313-1.333-1.34-.729,1.46-2.588.862 .875,2.99-3.412,3.887-4.313,6.47 .507.067 1.224-.074 1.294.432-.642,1.19-1.818.133-3.02,1.293 .093,4.366-4.238,7.764-5.607,12.078 .742.17 1.105-.641 1.294,0-4.671,8.65.777,20.61 0,30.191 .717.865 1.158,2.005 2.588,2.156 .889-.117.103-1.909 1.294-1.725 1.132,1.863 2.491,5.204.863,7.332 3.438-1.12 3.518,3.642 4.744,6.039-1.621.363-2.555,2.062-4.313,2.156-1.072.058-6.854-2.246-7.333-2.588-3.589-2.564-3.649-9.359-2.157-12.077-1.06-.521-.837-2.325-2.156-2.588-.519,1.208-.442,3.009-2.588,2.588-.636-9.142-.567-21.284-.863-29.329 1.903.541 3.195,1.693 5.607,1.725-.517-1.688-5.414-1.437-6.47-3.881-.011-3.609-2.819-5.726-2.156-9.059 .507-2.55 3.697-3.737 4.744-6.038 .303,2.187-2.236,3.782-.862,5.606 .801-4.374 3.611-6.74 4.313-11.214-.742-.17-1.105.64-1.294,0 .509-1.141.373-1.339 1.725-.862 .976-6.359 1.765-13.365 0-19.41-.722-2.473-3.112-3.994-2.588-6.9-.742.023-1.105-.332-1.294-.863-1.686-4.401-1.495-8.659-2.156-13.802-.631-4.901-3.624-9.504-4.313-14.665-1.386-10.37-1.155-20.451.863-31.486-.039-.68-1.1-.337-.863-1.294 1.995-5.902-3.447-12.156-.431-17.684-2.104-2.843.495-7.46.863-10.783 .716-6.471 4.65-11.936 9.058-13.802 2.961-1.254 7.454-.843 7.333-3.451-2.354.81-5.076,1.25-7.333,2.157 3.962-5.872 13.457-2.825 18.978-3.02 2.4-.084 4.869.615 6.47.863 8.513,1.319 17.994,3.073 26.311,4.313 1.739.26 3.927-.424 5.176,1.294-2.998.309-6.824-.21-8.195,1.726 3.302.929 7.537-.358 10.352-1.294 .769-1.16-1.899-.834-.431-1.294 1.631-.625.828,1.185 2.157.862 27.246-.204 58.123,2.199 80.225,1.294 .201.825-1.329,1.857.432,1.726 1.171.309-.309-2.034.862-1.726 5.917-.984 12.263-1.54 17.685-3.019-.006.857-1.177.548-.862,1.725 2.146.422 1.137-2.313 3.019-2.156 .412,1.238 1.432.281 1.726.862-2.934,1.223-4.189,2.243-7.332,2.588-.002-.433.349-.513.431-.862-1.958.198-3.118,1.195-4.744,1.725 4.177-.254 11.526,1.748 14.665-2.588-.51-.209-.979-.46-1.294-.863 1.053-.24.919-1.669 2.588-1.294 .229.621-1.681,1.053-.432,1.294 .894-.975 2.391-1.347 3.882-1.725-.877,1.547.729.135 1.726.863 1.07-1.761 1.63-1.432 3.882-1.726-.837,1.607-2.442,2.446-3.02,4.313 1.979-.753 1.982-3.481 4.313-3.882-.317,4.427-5.045,4.444-7.764,6.47 4.891.003 7.367-2.409 9.488-5.176-.525-.049-1.021-.129-.862-.863 1.141-1.828 1.964-1.507 4.313-1.725 .076-2.458-1.457.042-1.726-.863 1.269-.6 1.467-2.271 3.45-2.157-.731.418-1.107,1.192-.862,2.588 2.073.204.946-2.792 3.02-2.588-.268.902-2.213,1.621-.432,2.157 .573-.886 2.523-2.624 3.02-2.157-.443.735-2.964,1.598-1.726,2.588 2.177-1.06 4.523-4.002 7.333-3.019-1.396,1.623-2.77,3.27-3.883,5.176 1.654-1.444 3.935-5.102 6.471-3.019-1.952-.567-.916,1.002-1.294,1.725-.523.998-2.835,1.639-2.589,3.019 4.181.299 3.331-4.433 6.039-5.607-.979-.504-1.29.228-1.726-1.294 2.556,1.178 4.051-.219 7.333-.431 1.303,4.448 4.145,7.356 7.764,9.489-1.045,1.382-.524,1.521 0,3.019 1.911-.533 2.336-2.551 3.45-3.882-3.03.396.615-2.1-.862-2.588-.98.745-1.667,1.785-3.451,1.726-1.138-3.613-4.61-3.614-5.176-6.901-.41-2.385 1.032-5.11-.431-6.47 1.635-1.238-.936-4.87 0-6.47 6.468,1.008 11.472,3.48 15.096,7.333-.503.073-.468.682-.432,1.294 1.354.213 1.14-1.487 2.157-.431-.94.901.215,1.231 0,2.588-.804.412-1.441-1.292-1.726,0 .511.64 1.63.671 2.156,1.294-.864.878-.112,1.149.432,1.725-1.741-.415-3.953-.359-4.744-1.725 .703-1.476-.052-1.296-.863-2.157 1.377-2.53-1.119-7.12-3.019-5.607 2.826,2.297 1.185,4.392 1.725,8.195 2.916.247 2.224,4.102 3.882,5.607-.615-.168-.728-.518-1.294,0 1.167,3.972 5.018,5.701 9.921,4.745 .104.616.71.728.862,1.294-.039.68-1.1.338-.862,1.294 2.134,1.054 4.126-.407 4.744-2.157-1.461-.666-2.624-1.056-3.45.432-1.868-.342-.234-3.227-1.726-3.02-1.317-1.168-4.148,2.491-5.607,0 1.635.805 2.896-.655 4.745-.862 .225-1.062 1.082-1.816 1.725-3.451 1.286-.009 2.629.04 2.588-1.294-2.917-.187-8.169.38-7.332-4.745 3.977-.275 3.769-2.072 6.47-3.45 2.476,1.237 7.444,2.702 10.352.862 .711,1.458 1.886,4.712 3.882,3.451-3.129.141-.871-5.306-3.019-3.019-.324-3.987 1.743-8.266-2.157-9.058-1.947.084-.964,1.084-3.02.431-.063-.575 1.754-1.302.432-1.726-1.095,1.115-2.236,1.225-3.882.863-1.11-2.34-3.08-3.82-2.588-7.764 .896-1.835 3.822-1.642 4.313-3.882-4.122-.815-4.475,2.14-7.764,2.157-4.642,3.924-3.682,12.951.862,16.39-.887,1.27-1.452,2.86-3.02,3.45-4.718-2.029-7.263-6.621-12.076-8.626-.994-.414-2.4-.563-3.451-.863-1.914-.546-4.098-.759-6.47-1.294-.177.542-.556.881-1.294.863v4.744c3.091.838 1.763,3.917 3.02,6.039-1.848.973-2.477.7-4.313.863-1.193.105-2.448.8-3.882.862-1.699.074-3.524-.996-5.176-.862-1.906.154-3.245,1.321-4.744,1.294-5.046-.091-12.688,1.626-17.253,3.019-1.498.457-3.347.078-4.744.431-.743.188-1.476,1.052-2.157,1.294-4.951,1.76-9.772,1.816-15.096,2.588-1.797.261-3.753,1.071-5.607,1.294-2.373.286-4.747-.346-6.901,0-.966.155-1.627.862-2.588.863-2.506.003-4.784-.873-7.332-.863-12.829.051-28.493-.792-43.563-.862-14.872-.07-29.314.078-43.995-3.882-5.476-1.478-13.884-2.497-18.547-2.588-6.715-.132-13.69-1.863-20.272,0-.147,2.296-2.949,1.938-2.588,4.744-6.543,3.75-9.62,12.071-10.352,21.566-.48,6.232.893,11.857 1.294,15.959 .444,4.545-.696,9.021-.862,12.508 .334.097.851.012.862.431-3.598,16.866 3.629,42.653-6.901,54.778-.433,1.551-.506,3.907-1.294,5.607-.268.576-1.417.811-1.726,1.293-1.339,2.1-1.009,4.196-1.294,6.039-.491,3.178-2.17,6.421-1.725,9.92 2.412,3.562 2.924,12.676 1.294,16.391 3.702-2.895 2.619-9.148 1.725-12.077-1.311-4.3-2.223-8.043-.862-11.646 1.013,1.051.965-.481 1.725-.863-.35-2.043-.411-5.687 1.725-6.469-.41-2.972 1.972-5.931 3.02-8.627 .878-2.26.575-7.059 3.882-6.039-1.521.062-1.229,1.936-1.725,3.02 .526.049 1.021.129.862.863-4.2,7.428-.167,15.039-1.294,23.723-.962-.059-1.786,2.185-1.294,2.156-.132-.876 1.246.088 1.294.432-1.097.744-1.672-.658-1.725.862 .944,1.628 1.929,5.304-.432,6.901 .063-1.664-.853-4.586-1.725-3.883 1.583,4.831-1.753,12.039-5.607,12.509-2.11,3.987-4.753,11.845-2.157,17.685 .315-8.312.925-16.329 7.767-18.113 1.856-4.039 5.345-6.445 5.176-12.509 2.331-3.456 2.6-10.17 2.588-14.665-5.831-10.266 2.708-22.552 1.726-31.918 2.22,6.292 1.066,12.025 3.45,18.979 3.228,3.242 3.516,9.424 5.176,14.233-1.435,2.726-.586,6.027-1.294,9.058-1.484,6.361-6.314,11.199-9.058,15.959 1.077,4.535 4.875,13.107 2.588,16.821 .631.375 1.367.646 1.294,1.726 .808,6.855-1.791,17.212 1.726,22.859 1.337-.043 2.392.195 3.019.863-2.252,9.11 4.804,12.374 11.646,13.802 .703-.483 1.489-.765 2.292-.97 .044-.136.142-.254.319-.307 4.29-1.262 1.255-4.931.497-8.004l-.521-.209c-1.562-3.756-2.827-7.812-5.176-10.783-.132-5.02-1.679-9.336-2.156-13.802-.871-8.14 3.255-14.076 5.176-21.134 .615-.169.711-.855.431-1.295 3.021-7.188 9.181-11.234 14.665-15.959 .045-1.824 1.161-2.576 2.588-3.019 .585,5.011-3.885,7.701-3.019,12.939 .325,1.962 2.801,4.747 3.451,7.764 .858,3.983.207,5.612 1.294,8.626-.857,3.738-1.946,9.762-2.157,15.097-.188,4.763.293,11.132 6.039,12.077-2.594,4.28.491,7.555 3.969,9.873 .928.219 1.969.112 2.929.059 .001-.004.001-.008.003-.012 1.684-.294 2.92.239 4.165.679 2.074.196 5.537.069 5.415-2.63-.077-1.688-1.076-3.08-1.51-4.67-.109.037-.214.084-.306.151-.338-2.015-2.46-3.267-3.451-5.176-.569-1.098-.323-2.394-.863-3.882-.9-2.482-2.923-5.152-3.451-7.332-.901-3.723-.528-8.654-.431-10.783 .151-3.336-.235-6.842 0-9.92 .047-.615.838-.725.863-1.295 .036-.848-.804-.585-.432-1.725 .249-.762 1.018-.713.863-1.726 2.595-10.775 10.043-16.698 10.783-29.329 8.908,3.168 16.405,7.748 22.428,13.802 4.046-.722 6.855,2.505 10.352,3.019-.277-.04 1.438-1.193 2.157,0 .17-.742-.64-1.105 0-1.293 1.175,1.602 2.423.969 4.313,1.293 .114-1.785-1.674-.573-1.726-1.293 .521-.092.265-.479 0-.863 1.997-.742 4.73.929 6.47,0-.384-.252-2.46-.906-1.294-1.294 6.63,1.669 14.82,1.981 21.135,1.726 17.414-4.785 33.186,2.639 45.288,8.626 .438,3.187-.164,5.973 0,8.195 .006.074.812.073.863.431 .15,1.055 1.127,2.568 1.294,3.883 .067.532-.957.457-.863.862 .032.138 1.167.322 1.294.862 .339,1.436-.363,3.139 0,4.744 .637,2.812 2.979,5.148 3.882,8.195 2.49,8.412-.279,20.854 6.47,24.586 .902-.248 1.231-1.07 2.588-.863 1.568,2.523-.775,4.258.432,6.901 1.633,3.576 14.542,6.522 18.115,4.313 1.057-.574-.474-1.605.432-1.726 1.598.836 2.145-.604 2.93-1.119 .937-2.75 1.935-5.628 1.951-8.534 .009-1.508.166-3.233-.321-4.68-.232-.688-.45-1.365-.639-2.055l-.039-.002c-3.54-6.812-8.439-12.265-8.627-22.429 .433-.575.712-1.302 1.295-1.726 .243-6.32 1.913-12.623 1.725-17.684-.074-1.995-1.912-3.98.432-5.176 3.186.036 5.462-2.164 6.901-3.02 .624-.371 1.247-.002 1.725-.432 6.652-5.969 3.377-20.816 13.371-23.291 1.031-1.557 1.96-3.217 3.45-4.312-.284-2.299.951-3.076 1.726-4.314 .394-6.058-.328-11.5.862-16.39 .47-1.926.833-4.043 1.294-5.607 1.82-6.165 7.35-9.664 9.489-15.096 6.938-3.557 5.917-15.074 15.527-15.959 2.175,2.25 5.999.411 8.627-.431 2.92,3.898 9.523,1.443 12.508,5.176 5.26-.702 8.796-2.662 14.233-2.157 2.596-2.631 5.128-8.265 3.017-12.935zm-59.953,3.451c.439-1.338.423,1.224.862,1.294 .548,1.465 2.393,1.634 2.588,3.451-2.594-.138-2.624-2.84-3.45-4.745zm3.019,3.451c-.185-.821-.929-1.084-.862-2.157 1.182.975 2.406,1.907 4.313,2.157-.441.961-1.983-.564-3.451,0zm-175.546,57.365c.347.229.7.449 1.294.432-.082.35-.433.43-.432.862h-.862v-1.294zm-1.294,0c-.054,1.294-2.448,1.383-3.02.863 .511-.785 2.249-.34 3.02-.863zm176.84-128.102c1.683,1.238-.845,2.712-.862,4.313-.061,5.46 5.878,9.936 12.077,7.333-1.468,1.871.072,2.564.432,4.745-2.788-.333-5.951,1.068-8.627.431-7.053-1.679-8.889-12.997-3.02-16.822zm-7.764,28.467c1.42.018 2.147.729 3.882.432 .015.246-3.931,2.41-3.882-.432zm2.588-.431c-.069-.505-.786-.364-1.294-.431 1.601-1.043 6.834.945 1.294.431zm.432-2.157c-.709,1.229-2.34-.207-3.02-.431 .738-1.258 1.57.977 3.02.431zm-20.272-12.939c-1.098-.044-1.02-1.607-.432-2.156 1.003.646.659,1.054.432,2.156zm-24.154,11.214c-.632,1.625-1.143.872-3.02.863 .627-.668 1.683-.906 3.02-.863zm-17.684,6.039c1.144.759-1.314,1.527-1.726,2.156-1.31-.925 1.52-1.322 1.726-2.156zm-176.841,128.964c-1.254-.375-.485-.646-.431-1.725 1,.12.991,1.151.431,1.725zm.432-2.588c-1.238-.853.149-2.691 0-3.882 1.068.683.176,3.017 0,3.882zm10.783,4.744c1.292.284-.413.922 0,1.726-1.073-.065-.127-1.461 0-1.726zm-.863,2.157c1.171.393-.439,1.511-.431,2.156-1.426-.646.896-1.053.431-2.156zm30.192-11.214c-.505-.07-.364-.787-.432-1.295 .734-.158.814.337.863.863-.366-.079-.406.169-.431.432zm8.195-11.215c-.367-.079-.407.168-.431.432-.505-.07-.364-.787-.431-1.295 .733-.158.813.337.862.863zm-2.156,2.157c1.701-.551 1.12,1.181 1.725,1.726 .767-.384 1.096-1.204 2.588-.862-.872,2.526-3.793,1.295-5.176,2.588-.989-1.286 3.324-1.601.863-3.452zm2.588,14.665c.92-.201.821.616.862,1.294-.349-.082-.43-.433-.862-.432v-.862zm-8.195,7.333c-.25,1.4.294,2.006.431,3.019-1.494-.087-.785-2.378-1.294-3.45 1.33-.823-.059-.814.863-3.02 1.334-.04 1.286,1.303 1.294,2.588 1.091-1.26.146-4.152 0-5.607 3.206-.264.259,3.686 2.157,5.176 1.278-.626-.568-1.682 0-3.019 1.177-.039.868.718 1.725,0v-2.157c-.133-.585-1.08-.357-1.725-.431 .07-.501-.095-.768-.431-.862 .327-1.111 1.376-1.499 3.019-1.295 .267,1.171-.548,3.424.431,3.883 .964-.186.175-2.126.432-3.02 1.874.283.034,4.279 2.588,3.882-1.264.331-1.408,3.724.862,3.019-1.549.707-.256,1.759-.431,3.451-2.292-.728-1.941-4.098-2.588-6.47-2.513,1.172.859,3.28 0,5.606-1.045-.248-.959-1.628-1.294-2.588-1.288.859 1.099,3.118 0,3.883-1.498.15-1.805-2.025-1.294-2.588-.408-1.076-2.222,1.16-2.157-.863-.714.436-.468,1.832-.862,2.588-.761-.391-.714-1.589-1.726-1.725zm3.45-6.471c1.254.375.485.646.431,1.726-.585-.134-.358-1.08-.431-1.726zm5.176,10.352c-.186,1.193-1.356.023-.863-.862 .469.106.293.858.863.862zm6.039,38.387c3.802,1.23 2.676,7.388 6.47,8.626-.092,1.055-1.754,1.576 0,2.157-3.183,1.163-3.342-4.417-6.039-5.176 .007-2.308-.405-4.196-2.157-4.745-.7,1.601-2.544,2.057-3.019,3.883 .082.35.433.43.431.862 1.154-.571 2.525-.926 2.157-3.02 2.045,2.556 3.042,6.159 5.607,8.195-2.241,1.063-6.8.415-8.626-.431-1.606-.746-3.567-2.931-3.451-5.177 .107-2.074 2.257-3.948 1.294-8.194-.575-.616-1.918-1.142-2.588-.432 .051,1.7 1.875,1.318.863,3.02-.501.361-1.157.568-2.157.431-4.893-9.083 2.26-23.751-1.725-33.212-.314-1.176.857-.867.862-1.725-.144-1.006-.442-1.858-1.294-2.156 .215-1.51 1.745-1.707 1.726-3.451 1.26.49.834,2.359 2.588,1.294 .248.759-.521,2.534.431,2.589-.065.797-1.46.264-1.725.861 .664,1.494.381,3.933.431,6.039 .819-1.05.294-3.443.863-4.744 1.391.204 2.116,4.146 3.45,1.725 .576.561 2.259,4.158-.431,5.176 .499-.459.158-1.986-.431-2.588-.769,2.612.501,4.889.862,6.901-.621-.482-1.052-.465-1.294.431 .065.799 1.46.266 1.726.863-.633,1.018-.911.803-.432,2.156-.347-.229-.7-.449-1.294-.431v3.019c1.352-.298.562-1.15.432-2.156 .928.365 1.525,1.062 1.294,2.588-.857.719-.549-.039-1.726,0-.232,1.001.698,2.973 1.294,1.726 .333,2.753.499,3.033.432,6.038 1.016.01 1.27-.742 2.588-.432-.34,2.845 3.336,4.857 2.588,9.49zm101.79-51.758c-1.128.122-1.854-.157-1.725-1.294 1.128-.121 1.856.158 1.725,1.294zm6.039-4.745c.469.107.292.857.862.863-.012.42-.527.334-.862.432-.517-.566-.168-.678 0-1.295zm1.294,8.627c-.941.078-1.372-.354-1.294-1.294 .402.46 1.591.134 1.294,1.294zm9.489,1.725c-.957.238-.614-.823-1.294-.862-.128-.771 1.673-.027 1.294.862zm35.369,63.404c-4.033-1.033-7.184-5.135-7.333-8.627 2.406,1.912 4.312,6.609 7.333,6.471-.343-.899.549.514 0,2.156zm-3.02-22.859c-.41,2.566 1.059,3.254 2.156,4.312-.721.681-1.746-.327-1.726,1.726 .24,1.054 1.013,1.575 1.726,2.156 1.278-.626-.568-1.683 0-3.019 2.336,1.833 4.753,3.586 4.745,7.764-2.361-1.188-5.527-.56-8.195-2.157-.116,2.345-.96-.067-2.588.862 1.176,1.988 3.699,2.627 6.901,2.588-.592,1.278-1.535,2.204-1.726,3.883-8.302-7.417-12.442-14.721-12.939-26.311-.069-1.617-.639-2.881-.432-4.313 .228-1.574 1.602-2.806 1.726-4.745 .128-2-1.177-4.214-1.294-6.469-.21-4.051.189-9.577.862-14.234 1.4-.25 2.007.295 3.02.432 .191.815-.587,2.6.862,2.156 .079-.366-.168-.406-.432-.431 .152-.604.76-.037.863.431 .885.238 1.028-.822.431-.862 1.151-1.077 1.265.456.863,1.726 1.137.13 1.415-.598 1.294-1.726 2.297,5.626 1.97,15.35-1.387,19.209 .045.053.081.114.093.2-.114-.003-.203.018-.3.031-.311.322-.636.613-.994.832 .159-.449.46-.758.994-.832 .07-.074.139-.152.207-.231-.22-.257-.78-.175-1.201-.231-.907,2.592-.53,4.95-.432,7.765 .873-.128 2.126-3.521.862-3.02 1.919-1.909 2.615,5.445 3.882,8.626 .662,1.655 1.493,2.978 2.159,3.882zm-3.45-12.509c-.595,1.373-.428-1.524-.432-2.156 .594-1.373.427,1.524.432,2.156zm4.744-28.036c1.146-1.406 3.196-1.178 4.744-2.156 1.385-.875 1.83-3.418 3.451-2.588-1.904,2.41-4.102,4.524-8.195,4.744zm18.115-25.016c-1.25-.242.662-.673.432-1.295 1.429.422-.483.854-.432,1.295zm2.588-2.156c.244-1.637 3.449-3.27 4.313-6.039 .407-1.305-1.081-2.865.862-3.451-.493,4.394-2.208,7.568-5.175,9.49zm59.522-57.366c1.113-1.331 3.143-1.746 5.607-1.725-1.151,1.292-4.062.826-5.607,1.725z" fill-rule="evenodd"/>
 <path style="fill:#ffffff;" d="m249.52 31.476c-1.743-1.517-1.017 1.388 0 0z" fill-rule="evenodd"/>
 <path style="fill:#ffffff;" d="m85.185 133.7c-2.061-1.199-1.044 1.414 0 0z" fill-rule="evenodd"/>
 <path style="fill:#ffffff;" d="m222.78 226.43c-0.574-2.137-2.037-0.674 0 0z" fill-rule="evenodd"/>
 <path style="fill:#ffffff;" d="m229.246,29.319c-.44,1.285-1.812,1.64-2.156,3.02-1.668-.211 1.316-2.514 2.156-3.02z" fill-rule="evenodd"/>
 <path style="fill:#ffffff;" d="m265.044,34.927c-.053,1.969-2.447.234-3.019,0 1.035-.91 1.273.948 3.019,0z" fill-rule="evenodd"/>
 <path style="fill:#ffffff;" d="m279.709,32.77c2.161.881 1.492,1.937 2.157,4.313-1.07-1.086-1.658-2.654-2.157-4.313z" fill-rule="evenodd"/>
 <path style="fill:#ffffff;" d="m196.46 34.064c1.384-0.593-3.303 1.416 0 0z" fill-rule="evenodd"/>
 <path style="fill:#ffffff;" d="m273.24,35.789c1.723-.132 5.073,1.822 4.313,5.607 1.586-1.341.428-3.483.432-5.607 1.039-.176.938.788 2.156.432-.632,1.956-1.705,3.47-1.294,6.47-1.641.243-2.478,1.546-3.882.862 1.545.755 1.605,2.995 1.726,5.176-.763.387-1.26,1.041-2.157,1.294-.422,2.004.56,2.604.863,3.882h-1.726c-.884-2.358-1.64-7.629 1.294-7.333 .073-1.08-.663-1.35-1.294-1.725-.951,1.512-5.082,2.636-6.038.431-.317.893-2.072,2.227-.432,2.588-1.153,1.125-2.646-1.071-2.157-3.019 .902-.183 1.143.295 1.726.431-.908-2.255-2.271-4.054-4.313-5.176 2.73-.368 5.475-2.757 8.627-1.294-.069.505-.786.364-1.294.431-.185,1.191 1.608.405 1.726,1.294 1.208-.423-.627-1.151.431-1.725 2.23-.361 1.959,1.779 3.451,2.156 1.339-2.074-.581-4.584-2.158-5.175zm-2.157,8.627h2.588c.276-2.862-2.266-1.257-2.588,0z" fill-rule="evenodd"/>
 <path style="fill:#ffffff;" d="m281.003,39.24c2.266,1.074-1.488,3.015-.431,4.313-.774-.055-.91.528-1.726.432 .196-2.106 2.405-2.197 2.157-4.745z" fill-rule="evenodd"/>
 <path style="fill:#ffffff;" d="m303.432,39.671c.925-.922-.31,2.243-.862,2.588-1.17-.65.686-1.861.862-2.588z" fill-rule="evenodd"/>
 <path style="fill:#ffffff;" d="m286.179,43.984c-.674,2.037-2.137.574 0,0z" fill-rule="evenodd"/>
 <path style="fill:#ffffff;" d="m58.443,66.844c1.057-1.306 2.807.327 4.313,0-1.723.231-2.906,1.254-4.313,0z" fill-rule="evenodd"/>
 <path style="fill:#ffffff;" d="m311.196,71.157c1.919.463-1.249,2.581-1.726,3.451-3.34.464-4.71-1.04-6.9-1.725 2.615-.921 7.644,2.89 8.626-1.726z" fill-rule="evenodd"/>
 <path style="fill:#ffffff;" d="m252.537,78.059c1.835.897 1.875,3.588 3.45,4.744-1.279.26-2.972-2.769-3.45-4.744z" fill-rule="evenodd"/>
 <path style="fill:#ffffff;" d="m20.919,84.528c.373-2.733 3.228.167 4.313.431 1.577.385 4.095-.68 4.313,1.294-3.121.248-5.803-1.877-8.626-1.725z" fill-rule="evenodd"/>
 <path style="fill:#ffffff;" d="m222.776,215.648c.712-.822 1.828,1.598 2.588,2.157-.993,1.104-1.665-1.76-2.588-2.157z" fill-rule="evenodd"/>
 <path style="fill:#ffffff;" d="m30.408,223.412c1.706-1.629 2.19-.67 4.745-.431 .621,1.933 2.132,4.907.863,7.333-2.948-1.223-1.746-6.593-5.608-6.902zm4.744,4.745c.013-1.738-.124-3.327-1.294-3.882 .746.979-.166,3.618 1.294,3.882z" fill-rule="evenodd"/>
 <path style="fill:#ffffff;" d="m296.962,27.163c2.392,1.68 1.353,6.485 1.294,8.626 2.202-1.823 4.211-3.84 4.745-7.332 2.762,1.793.166,5.529-.863,7.332 .223,1.503 2.818.633 4.313.863-1.368,1.364-4.038,1.425-5.607,2.588-.301,1.188.815,2.194-1.294,3.019-2.729-1.44-3.273-5.065-5.176-7.332 .778-1.667 1.257-3.631 1.294-6.039 1.44.433 1.415-.598 1.294-1.725z" fill-rule="evenodd"/>
 <path style="fill:#ffffff;" d="m75.696,37.946c.273,1.6-1.184,1.545-.431,2.588-.321.973-2.419.169-3.451.431 .853-2.261.318-.983-.432-3.019 1.664-1.118 2.101-.269 4.314,0z" fill-rule="evenodd"/>
</svg>
