<svg id="Layer_2" data-name="Layer 2" xmlns="http://www.w3.org/2000/svg" viewBox="0 0 505.81 475.15"><defs><style>.cls-1{fill:#fff;}</style></defs><title>Andor-circle</title><path class="cls-1" d="M447.07,683.59a9,9,0,0,1-6.63-2.87,235.13,235.13,0,0,1-56.93-104.24,241,241,0,0,1,2.12-123.77c.3-1,.61-2.11.91-3.18.42-1.42.85-2.85,1.31-4.26l0-.09A244.73,244.73,0,0,1,554.08,283.5l.24-.05A233.95,233.95,0,0,1,679,282.51c1.81.47,3.72,1,5.7,1.62l.07,0h.07a229.2,229.2,0,0,1,84.32,45.67A9.3,9.3,0,0,1,771.81,340,243.93,243.93,0,0,1,626.3,489.2l-.78.3,0,0-.31.15-.15.05A239.1,239.1,0,0,1,592.79,499l-.2,0-.19.28,0,.15c-.24,4.8-.56,9.62-.95,14.35a9.61,9.61,0,0,1-5.36,7.84A247,247,0,0,0,458.49,669.06c-.81,2.52-1.55,5-2.26,7.55A9.46,9.46,0,0,1,447.07,683.59Z" transform="translate(-375.91 -274.02)"/><path class="cls-1" d="M618.44,275a233.44,233.44,0,0,1,60.4,8c1.8.47,3.72,1,5.68,1.61h0l.15,0A228.26,228.26,0,0,1,768.8,330.2a8.8,8.8,0,0,1,2.54,9.65,242.45,242.45,0,0,1-57.13,91.84,245.67,245.67,0,0,1-88.08,57l-.53.2h0l-.1-.07-.5.29h0l-.11,0a238.62,238.62,0,0,1-32.18,9.31l-.4.1-.23.33-.16.23v.28c-.24,4.79-.56,9.61-.95,14.33a9.1,9.1,0,0,1-5.08,7.43A247.51,247.51,0,0,0,458,668.91c-.81,2.53-1.55,5-2.27,7.57a9,9,0,0,1-8.68,6.61,8.54,8.54,0,0,1-6.26-2.72,234.63,234.63,0,0,1-56.81-104,240.55,240.55,0,0,1,2.12-123.51c.3-1,.61-2.11.91-3.17.41-1.38.84-2.8,1.28-4.17v0l0-.14A244.23,244.23,0,0,1,554,284h0l.45-.13a235,235,0,0,1,64-8.91m0-1A236,236,0,0,0,554.19,283h0A245.22,245.22,0,0,0,387.41,445v0c-.47,1.43-.9,2.88-1.33,4.34-.31,1.07-.62,2.13-.92,3.18C361.32,537,385,622.74,440.08,681.06a9.52,9.52,0,0,0,7,3,10,10,0,0,0,9.64-7.34c.71-2.54,1.46-5,2.26-7.54A245.41,245.41,0,0,1,586.3,522.11a10.11,10.11,0,0,0,5.64-8.25q.6-7.18.95-14.36v0a238.75,238.75,0,0,0,32.31-9.35,1.7,1.7,0,0,0,.22-.09h0l1-.39a245.37,245.37,0,0,0,145.81-149.5,9.84,9.84,0,0,0-2.83-10.74A230.12,230.12,0,0,0,685,283.71a.36.36,0,0,0-.19-.06h0c-1.88-.57-3.79-1.12-5.72-1.62a234,234,0,0,0-60.66-8Z" transform="translate(-375.91 -274.02)"/><path class="cls-1" d="M639.72,748.67a231.89,231.89,0,0,1-59.49-7.78A228.46,228.46,0,0,1,490.62,694,9.25,9.25,0,0,1,488,683.8,246.23,246.23,0,0,1,616.92,541.37a236.8,236.8,0,0,1,33.21-12.52c.36-.13.71-.23,1.07-.33l.4-.11,0-.42a1.61,1.61,0,0,1,0-.4c.07-3.58.19-7.21.36-10.86a9.58,9.58,0,0,1,5.89-8.45A246.45,246.45,0,0,0,800,354.32l0-.08c.73-2.25,1.44-4.65,2.26-7.55a9.49,9.49,0,0,1,9.17-7,8.93,8.93,0,0,1,6.56,2.85,233,233,0,0,1,56.36,103.85,241.21,241.21,0,0,1-2.5,123.52c-.28,1.06-.59,2.12-.92,3.17s-.64,2.12-1,3.17l-.22.72-.14.44-.12.33.78.67A247.13,247.13,0,0,1,803.1,683.81a244.44,244.44,0,0,1-107.08,58c-.53.14-1.07.28-1.63.39A234.51,234.51,0,0,1,639.72,748.67Z" transform="translate(-375.91 -274.02)"/><path class="cls-1" d="M811.43,340.2a8.43,8.43,0,0,1,6.19,2.69,232.48,232.48,0,0,1,56.23,103.63,240.72,240.72,0,0,1-2.5,123.27c-.27,1-.57,2-.92,3.16s-.63,2.1-1,3.14l-.22.72-.08.25-.06.18-.24.65.53.46.26.23a246.62,246.62,0,0,1-66.93,104.87A243.93,243.93,0,0,1,695.89,741.3c-.56.15-1.07.27-1.63.39a233.94,233.94,0,0,1-54.54,6.48,231.38,231.38,0,0,1-59.36-7.76,228,228,0,0,1-89.41-46.83,8.75,8.75,0,0,1-2.46-9.61A245.74,245.74,0,0,1,617.14,541.82a236.39,236.39,0,0,1,33.14-12.49h.07c.3-.11.64-.21,1-.31l.81-.23-.08-.83a1.12,1.12,0,0,1,0-.27v-.12c.07-3.51.19-7.14.35-10.79a9.08,9.08,0,0,1,5.58-8,247,247,0,0,0,142.41-154.2h0l0-.14c.72-2.25,1.44-4.65,2.27-7.57a9,9,0,0,1,8.69-6.63m0-1a10,10,0,0,0-9.65,7.35h0c-.72,2.54-1.45,5-2.26,7.54v0A246.77,246.77,0,0,1,657.64,507.83a10.1,10.1,0,0,0-6.2,8.89q-.25,5.41-.36,10.81a2.09,2.09,0,0,0,0,.52c-.37.1-.74.21-1.08.33a236.62,236.62,0,0,0-33.28,12.54A246.74,246.74,0,0,0,487.53,683.64a9.78,9.78,0,0,0,2.76,10.7,229,229,0,0,0,89.81,47,232,232,0,0,0,59.62,7.8,234.61,234.61,0,0,0,54.78-6.51c.56-.12,1.12-.26,1.65-.39C775.92,722.56,844.21,661.89,871,577.8l-.4-.36c0,.16-.07.33-.11.49l-.41-.35c.06-.15.1-.31.15-.46.4-1.29.8-2.6,1.18-3.9.33-1.05.64-2.12.92-3.18,24-84.3.69-169.81-54-227.84a9.41,9.41,0,0,0-6.92-3Z" transform="translate(-375.91 -274.02)"/><path class="cls-1" d="M641.8,502.46l-.24.07a1.7,1.7,0,0,0,.22-.08Z" transform="translate(-375.91 -274.02)"/><path d="M641.78,502.45l-.07,0,.09,0Zm-.07,0-.09,0,.09,0Zm-.09,0-.06,0,.06,0Z" transform="translate(-375.91 -274.02)"/></svg>